<svg xmlns="http://www.w3.org/2000/svg" viewBox="0 0 637.88 60"><defs><style>.cls-1{fill:#40a840;}.cls-2{fill:#fff;}.cls-3{fill:#68301a;}.cls-4{fill:#387338;}</style></defs><title>banner_2</title><g id="Layer_2" data-name="Layer 2"><g id="Layer_1-2" data-name="Layer 1"><path class="cls-1" d="M93.9,33.26V26a4.45,4.45,0,0,1,1.34-3.48,4.88,4.88,0,0,1,3.41-1.14,5,5,0,0,1,3.44,1.18,4.39,4.39,0,0,1,1.3,3.44v1.47H99.7v-1.8a2.91,2.91,0,0,0-.12-.92.93.93,0,0,0-.94-.54,1,1,0,0,0-.93.52,3,3,0,0,0-.14.94v7.9a2.16,2.16,0,0,0,.24,1.12.92.92,0,0,0,.82.34.93.93,0,0,0,.92-.57,2.89,2.89,0,0,0,.14-.9V31.23h3.68v2a4.46,4.46,0,0,1-1.28,3.36,5.39,5.39,0,0,1-6.9,0A4.45,4.45,0,0,1,93.9,33.26Z"/><path class="cls-1" d="M105,26a4.48,4.48,0,0,1,1.34-3.49,4.91,4.91,0,0,1,3.41-1.13,5,5,0,0,1,3.44,1.16A4.38,4.38,0,0,1,114.51,26v7.28a4.5,4.5,0,0,1-1.28,3.36,5.42,5.42,0,0,1-6.92,0,4.45,4.45,0,0,1-1.3-3.38Zm1.78-5.32,1.66-2.71h2.82l1.45,2.71h-2.08l-.88-1.52-1,1.52Zm1.9,12.92a2.16,2.16,0,0,0,.24,1.12.92.92,0,0,0,.82.34.93.93,0,0,0,.92-.57,2.89,2.89,0,0,0,.14-.9V25.66a2.91,2.91,0,0,0-.12-.92.93.93,0,0,0-.94-.54,1,1,0,0,0-.93.52,3,3,0,0,0-.14.94Z"/><path class="cls-1" d="M116.13,37.62v-16h4l3,9.42,0-9.42h3.56v16h-4l-3-9.88,0,9.88Z"/><path class="cls-1" d="M128.34,33.26V26a4.45,4.45,0,0,1,1.34-3.48,4.88,4.88,0,0,1,3.41-1.14,5.73,5.73,0,0,1,3.3.82,3.51,3.51,0,0,1,1.44,3.1v1.78h-3.5V25.48q0-1.26-1.16-1.26a1.07,1.07,0,0,0-.94.54,2.15,2.15,0,0,0-.21.92v7.9a2.16,2.16,0,0,0,.24,1.12.92.92,0,0,0,.82.34,1,1,0,0,0,1.17-1.2V31.78H133v-3h4.86v8.8H134.6v-1.3a3.25,3.25,0,0,1-2.88,1.55,3,3,0,0,1-2.68-1.4A6.23,6.23,0,0,1,128.34,33.26Z"/><path class="cls-1" d="M143.81,24.72V21.63h8.45v3.09h-2.38v12.9h-3.68V24.72Z"/><path class="cls-1" d="M155.63,31.3l-3-9.67h3.8l1,5.4,1.11-5.4h3.74l-3,9.4v6.58h-3.68Z"/><path class="cls-1" d="M167.65,24.72V21.63h8.45v3.09h-2.38v12.9H170V24.72Z"/><path class="cls-1" d="M177.13,37.62v-16h4l3,9.42,0-9.42h3.56v16h-4l-3-9.88,0,9.88Z"/><path class="cls-1" d="M189.35,37.62v-16H193v6h2.12v-6h3.68v16h-3.68V30.81H193v6.81Z"/><path class="cls-1" d="M200.46,37.62v-16h3.68v6h2.12v-6h3.68v16h-3.68V30.81h-2.12v6.81Z"/><path class="cls-1" d="M216.63,37.62v-16h5.8l1,7.92,1.07-7.92h5.8v16H226.8V25.2l-2.1,12.42h-2.4L220.24,25.2l0,12.42Z"/><path class="cls-1" d="M232.09,26a4.48,4.48,0,0,1,1.34-3.49,4.91,4.91,0,0,1,3.41-1.13,5,5,0,0,1,3.44,1.16A4.38,4.38,0,0,1,241.59,26v7.28a4.51,4.51,0,0,1-1.28,3.36,5.42,5.42,0,0,1-6.92,0,4.45,4.45,0,0,1-1.3-3.38Zm1.78-5.32,1.66-2.71h2.82l1.45,2.71h-2.08l-.88-1.52-1,1.52Zm1.29,18.5h3.44v2.36h-3.44Zm.62-5.58A2.16,2.16,0,0,0,236,34.7a.92.92,0,0,0,.82.34.93.93,0,0,0,.92-.57,2.89,2.89,0,0,0,.14-.9V25.66a2.91,2.91,0,0,0-.12-.92.93.93,0,0,0-.94-.54,1,1,0,0,0-.93.52,3,3,0,0,0-.14.94Z"/><path class="cls-1" d="M242.6,24.72V21.63H251v3.09h-2.38v12.9H245V24.72Z"/><path class="cls-1" d="M256.44,24.72V21.63h8.45v3.09H262.5v12.9h-3.68V24.72Z"/><path class="cls-1" d="M265.92,37.62v-16h3.68v6h2.12v-6h3.68v16h-3.68V30.81H269.6v6.81Z"/><path class="cls-1" d="M279.31,21.62h4.88l3,16h-3.88L283,34.78h-2.58L280,37.62h-3.68Zm2.9-3.67.88,2.71h-1.86l-2.18-2.71Zm-1.42,14h1.84l-.86-7.84Z"/><path class="cls-1" d="M288.15,37.62v-16h4l3,9.42,0-9.42h3.56v16h-4l-3-9.88,0,9.88Z"/><path class="cls-1" d="M300.36,37.62v-16H304v6h2.12v-6h3.68v16h-3.68V30.81H304v6.81Z"/><path class="cls-1" d="M318.2,37.62l-2.44-16h3.76l1,11.37,1.26-11.37h3.69l-2.71,16Z"/><path class="cls-1" d="M326.56,37.62v-16h3.68v16Z"/><path class="cls-1" d="M332,21.62h8.18V24.7h-4.5v3.19h3.95V31h-3.95v3.55h4.68v3.09H332Zm1.22-1,1.66-2.71h2.82l1.44,2.71h-2.08l-.88-1.52-1,1.52Z"/><path class="cls-1" d="M342,37.62v-16h4l3,9.42,0-9.42h3.56v16h-4l-3-9.88,0,9.88Z"/><path class="cls-1" d="M368.16,19.84h2.71v2.66l-1.28,1.35h-.89l0,9.41a4.51,4.51,0,0,1-1.28,3.36,5.42,5.42,0,0,1-6.92,0,4.45,4.45,0,0,1-1.3-3.38V21.62h3.68V33.29a3.44,3.44,0,0,0,.16,1.22q.15.4.91.4a1,1,0,0,0,.8-.31,2.25,2.25,0,0,0,.25-1.31V21.62l3.18,0Zm-4.62-1.89h3.1l-2.12,2.71h-1.92Z"/><path class="cls-1" d="M370.29,37.62v-16h4l3,9.42,0-9.42h3.56v16h-4l-3-9.88,0,9.88Z"/><path class="cls-1" d="M382.5,33.26V26a4.45,4.45,0,0,1,1.34-3.48,4.88,4.88,0,0,1,3.41-1.14,5.73,5.73,0,0,1,3.3.82A3.51,3.51,0,0,1,392,25.3v1.78h-3.5V25.48q0-1.26-1.16-1.26a1.07,1.07,0,0,0-.94.54,2.15,2.15,0,0,0-.21.92v7.9a2.15,2.15,0,0,0,.24,1.12.92.92,0,0,0,.82.34,1,1,0,0,0,1.17-1.2V31.78h-1.3v-3H392v8.8h-3.22v-1.3a3.25,3.25,0,0,1-2.88,1.55,3,3,0,0,1-2.68-1.4A6.23,6.23,0,0,1,382.5,33.26Z"/><path class="cls-1" d="M398.58,37.62v-16h5.48a3.81,3.81,0,0,1,3.18,1.22,4.89,4.89,0,0,1,.82,3.07v7.6a3.81,3.81,0,0,1-4,4.1Zm3.68-13.26V34.9h.58q1.54,0,1.54-1.36V25.72q0-1.36-1.54-1.36Z"/><path class="cls-1" d="M409.69,21.62h3.68V33.29a3.44,3.44,0,0,0,.16,1.22q.15.4.91.4a1,1,0,0,0,.8-.31,2.25,2.25,0,0,0,.25-1.31V21.62h3.7V33.26a4.51,4.51,0,0,1-1.28,3.36,5.42,5.42,0,0,1-6.92,0,4.45,4.45,0,0,1-1.3-3.38Zm3.07,17.54h3.44v2.36h-3.44Z"/><path class="cls-1" d="M420.8,37.62v-16h4l3,9.42,0-9.42h3.56v16h-4l-3-9.88,0,9.88Z"/><path class="cls-1" d="M433,33.26V26a4.45,4.45,0,0,1,1.34-3.48,4.88,4.88,0,0,1,3.41-1.14,5.73,5.73,0,0,1,3.3.82,3.51,3.51,0,0,1,1.44,3.1v1.78H439V25.48q0-1.26-1.16-1.26a1.07,1.07,0,0,0-.94.54,2.15,2.15,0,0,0-.21.92v7.9a2.15,2.15,0,0,0,.24,1.12.92.92,0,0,0,.82.34,1,1,0,0,0,1.17-1.2V31.78h-1.3v-3h4.86v8.8h-3.22v-1.3a3.25,3.25,0,0,1-2.88,1.55,3,3,0,0,1-2.68-1.4A6.23,6.23,0,0,1,433,33.26Z"/><path class="cls-1" d="M449.09,37.62v-16h3.56v6.54l2.5-6.54h3.9L456,28.26l3.08,9.37h-3.92l-1.64-5.72-.86,1.32v4.4Z"/><path class="cls-1" d="M459.54,21.62h3.8l1,5.4,1.11-5.4h3.74l-3,9.42v6.58h-3.68V31.3Zm8.18-3.17a4.36,4.36,0,0,1-.82,1.4,2,2,0,0,1-1.46.61,3,3,0,0,1-1.24-.34,3,3,0,0,0-1.05-.32,1.15,1.15,0,0,0-.59.24l-.16.18-.24.3-1-.36a6.2,6.2,0,0,1,.24-.61,2.42,2.42,0,0,1,.46-.71,1.62,1.62,0,0,1,1.28-.68,4,4,0,0,1,1.34.3,6.68,6.68,0,0,0,1.16.38,1,1,0,0,0,.65-.22,1.28,1.28,0,0,0,.42-.58Z"/><path class="cls-1" d="M474.56,24.72V21.63H483v3.09h-2.38v12.9h-3.68V24.72Z"/><path class="cls-1" d="M484,37.62v-16h3.68v6h2.12v-6h3.68v16h-3.68V30.81h-2.12v6.81Z"/><path class="cls-1" d="M495.16,33.26V21.63h3.68V33.29a3.44,3.44,0,0,0,.16,1.22q.15.4.91.4a1,1,0,0,0,.8-.31,2.25,2.25,0,0,0,.25-1.31V21.63h3.68V33.26a4.47,4.47,0,0,1-1.28,3.36,5.39,5.39,0,0,1-6.9,0A4.45,4.45,0,0,1,495.16,33.26Z"/><path class="cls-1" d="M508.55,21.62h4.88l3,16h-3.88l-.34-2.84h-2.58l-.38,2.84h-3.68Zm-.5-1,1.66-2.71h2.82L514,20.66h-2.08L511,19.13l-1,1.52Zm1.14,18.5h3.44v2.36h-3.44Zm.84-7.22h1.84L511,24.1Z"/><path class="cls-1" d="M516.78,24.72V21.63h8.45v3.09h-2.38v12.9h-3.68V24.72Z"/><path class="cls-1" d="M533,37.62l-2.44-16h3.76l1,11.37,1.26-11.37h3.69l-2.71,16Z"/><path class="cls-1" d="M543.5,21.62h4.88l3,16h-3.88l-.34-2.84H544.6l-.38,2.84h-3.68Zm2.9-3.67.88,2.71h-1.86l-2.18-2.71Zm-1.42,14h1.84L546,24.1Z"/><path class="cls-1" d="M557.15,32.2h3.56v1.18a2.33,2.33,0,0,0,.21,1.15,1.12,1.12,0,0,0,1,.51,1.24,1.24,0,0,0,.94-.38,1.21,1.21,0,0,0,.34-.86,3.11,3.11,0,0,0-1.34-2.23l-1.58-1.18a22.91,22.91,0,0,1-2-1.8,4.57,4.57,0,0,1-.7-1.24,5,5,0,0,1-.21-1.49,4.35,4.35,0,0,1,1.22-3.37,6.09,6.09,0,0,1,6.93-.06,3.84,3.84,0,0,1,1.14,3v1.45h-3.44V26A3.2,3.2,0,0,0,563,24.8a1,1,0,0,0-1-.58,1.36,1.36,0,0,0-.92.29,1.17,1.17,0,0,0-.34.9q0,.76,1.43,1.92l1.63,1.26A16.66,16.66,0,0,1,566.31,31a5.64,5.64,0,0,1,.61,2.76,3.73,3.73,0,0,1-1.06,2.62,5.12,5.12,0,0,1-3.94,1.46,4.89,4.89,0,0,1-3.74-1.36,3.63,3.63,0,0,1-1-2.6Z"/><path class="cls-1" d="M570.69,21.62h4.88l3,16h-3.88l-.34-2.84h-2.58l-.38,2.84h-3.68Zm1.53-.84a2.47,2.47,0,0,1,.4-1.19l.76-1a1.52,1.52,0,0,0,.42-1,1.36,1.36,0,0,0-.1-.56.45.45,0,0,0-.44-.22.48.48,0,0,0-.42.24,1.85,1.85,0,0,0-.12.63v.55h-1.48v-.66a1.81,1.81,0,0,1,.56-1.36,2.08,2.08,0,0,1,1.52-.54,2.53,2.53,0,0,1,1.58.44,1.76,1.76,0,0,1,.54,1.42,2.14,2.14,0,0,1-.5,1.34l-1,1a2.46,2.46,0,0,0-.43.83Zm0,11.16H574l-.86-7.84Z"/><path class="cls-1" d="M579.52,37.62v-16h4l3,9.42,0-9.42h3.56v16h-4l-3-9.88,0,9.88Z"/><path class="cls-1" d="M596.56,32.2h3.56v1.18a2.33,2.33,0,0,0,.21,1.15,1.12,1.12,0,0,0,1,.51,1.24,1.24,0,0,0,.94-.38,1.21,1.21,0,0,0,.34-.86,3.11,3.11,0,0,0-1.34-2.23l-1.58-1.18a22.91,22.91,0,0,1-2-1.8,4.57,4.57,0,0,1-.7-1.24,5,5,0,0,1-.21-1.49A4.35,4.35,0,0,1,598,22.49a6.09,6.09,0,0,1,6.93-.06,3.84,3.84,0,0,1,1.14,3v1.45h-3.44V26a3.2,3.2,0,0,0-.19-1.18,1,1,0,0,0-1-.58,1.36,1.36,0,0,0-.92.29,1.17,1.17,0,0,0-.34.9q0,.76,1.43,1.92l1.63,1.26A16.66,16.66,0,0,1,605.72,31a5.64,5.64,0,0,1,.61,2.76,3.73,3.73,0,0,1-1.06,2.62,5.12,5.12,0,0,1-3.94,1.46,4.89,4.89,0,0,1-3.74-1.36,3.63,3.63,0,0,1-1-2.6Z"/><path class="cls-1" d="M607.82,33.26V21.63h3.68V33.29a3.44,3.44,0,0,0,.16,1.22q.15.4.91.4a1,1,0,0,0,.8-.31,2.25,2.25,0,0,0,.25-1.31V21.63h3.68V33.26A4.47,4.47,0,0,1,616,36.62a5.39,5.39,0,0,1-6.9,0A4.45,4.45,0,0,1,607.82,33.26Z"/><path class="cls-1" d="M621.2,21.62h4.88l3,16h-3.88l-.34-2.84h-2.58l-.38,2.84h-3.68Zm-.5-1,1.66-2.71h2.82l1.44,2.71h-2.08l-.88-1.52-1,1.52Zm2,11.28h1.84l-.86-7.84ZM627,15.48h2.8l-1.92,2.43h-1.72Z"/><path class="cls-1" d="M629.44,24.72V21.63h8.45v3.09H635.5v12.9h-3.68V24.72Z"/><ellipse class="cls-2" cx="43.32" cy="30" rx="43.32" ry="30"/><rect class="cls-3" x="6.59" y="25.36" width="4.71" height="10.66"/><polygon class="cls-3" points="4.25 29.89 6.59 25.36 4.13 25.36 4.25 29.89"/><polygon class="cls-3" points="11.33 25.36 13.67 29.89 13.79 25.36 11.33 25.36"/><path class="cls-3" d="M26.48,30.69c0,2.93,1.94,5.31,4.32,5.31l.33,0V25.4l-.33,0C28.41,25.38,26.48,27.76,26.48,30.69Z"/><polygon class="cls-3" points="31.34 25.37 35.31 29.17 35.31 25.37 31.34 25.37"/><polygon class="cls-3" points="35.14 36.01 35.14 32.5 31.16 36.01 35.14 36.01"/><rect class="cls-3" x="16.43" y="25.49" width="3.76" height="10.66"/><polygon class="cls-3" points="24.05 25.51 20.38 25.51 24.05 29.3 24.05 25.51"/><polygon class="cls-3" points="22.65 28.33 20.23 30.67 22.56 32.92 22.65 28.33"/><polygon class="cls-3" points="20.25 36.13 24.17 36.13 24.17 31.43 20.25 36.13"/><polygon class="cls-3" points="44.73 25.36 40.71 25.36 41.99 31.19 41.12 31.19 40.09 27.04 38.28 36 42.28 36 41.34 32.21 42.21 32.21 43.05 36.01 47.06 36.01 44.73 25.36"/><rect class="cls-3" x="49.28" y="25.36" width="3.83" height="10.66"/><path class="cls-3" d="M54,25.42v6.17s4.39.4,4.44-2.77C58.54,24.8,54,25.42,54,25.42Z"/><rect class="cls-3" x="60.86" y="25.36" width="4.04" height="10.66"/><path class="cls-3" d="M66.31,30.91c1.08,0,4.29-.13,4.33-2.48.07-3.57-4.69-3-4.69-3v5.42l0,5.19h5.19Z"/><path class="cls-3" d="M72.82,30.69c0,2.86,1.93,5.18,4.35,5.32V25.37C74.75,25.5,72.82,27.83,72.82,30.69Z"/><path class="cls-3" d="M78.2,25.38V36c2.34-.23,4.18-2.52,4.18-5.31S80.54,25.61,78.2,25.38Z"/><path class="cls-4" d="M26.79,41.14h-9c5.84,6,14.87,9.73,24.61,9.9v-4A25.5,25.5,0,0,1,26.79,41.14Z"/><path class="cls-4" d="M68.34,41.14h-9a25.5,25.5,0,0,1-15.63,5.93v4C53.45,50.88,62.5,47.15,68.34,41.14Z"/><path class="cls-4" d="M57.56,41.14H43.71V46A24.38,24.38,0,0,0,57.56,41.14Z"/><path class="cls-4" d="M28.56,41.14A24.37,24.37,0,0,0,42.39,46V41.14Z"/><path class="cls-4" d="M16.29,41.14H10.1c5.66,8.46,18,14.37,32.29,14.55V52.14C32,52,22.3,47.8,16.29,41.14Z"/><path class="cls-4" d="M76,41.14H69.83c-6,6.67-15.69,10.84-26.13,11v3.55C58,55.52,70.36,49.6,76,41.14Z"/><polygon class="cls-4" points="12.72 20.39 23.22 20.39 41.44 6.48 12.72 20.39"/><path class="cls-4" d="M25,20.39H61.69L43.47,6.31Zm20.22-8.2,5,0-4,2.65,1.58,4.33-4-2.72-4,2.72,1.58-4.33-4-2.65,5,0,1.48-4.36Z"/><path class="cls-4" d="M46.41,5.73,75.95,20.39h.21C70.92,12.35,59.7,6.56,46.41,5.73Z"/><polygon class="cls-4" points="63.48 20.39 73.47 20.39 45.54 6.53 63.48 20.39"/><path class="cls-4" d="M10,20.39h.24L40.57,5.68C26.9,6.32,15.32,12.18,10,20.39Z"/></g></g></svg>