<svg xmlns="http://www.w3.org/2000/svg" viewBox="0 0 750 117.37"><defs><style>.cls-1{fill:none;}.cls-2{fill:#40a840;}.cls-3{fill:#fff;}.cls-4{fill:#68301a;}.cls-5{fill:#387338;}</style></defs><title>banner_1</title><g id="Layer_2" data-name="Layer 2"><g id="Layer_1-2" data-name="Layer 1"><rect class="cls-1" width="750" height="117.37"/><path class="cls-2" d="M205.68,40.77V27.87a7.91,7.91,0,0,1,2.38-6.18,8.67,8.67,0,0,1,6.06-2,8.81,8.81,0,0,1,6.11,2.1,7.81,7.81,0,0,1,2.31,6.11v2.62H216V27.3a5.18,5.18,0,0,0-.21-1.63,1.66,1.66,0,0,0-1.67-1,1.69,1.69,0,0,0-1.65.92,5.38,5.38,0,0,0-.24,1.67v14a3.84,3.84,0,0,0,.43,2,1.92,1.92,0,0,0,3.09-.4,5.14,5.14,0,0,0,.24-1.6V37.17h6.54v3.59a7.93,7.93,0,0,1-2.27,6,9.58,9.58,0,0,1-12.27,0A7.91,7.91,0,0,1,205.68,40.77Z"/><path class="cls-2" d="M225.43,27.84a8,8,0,0,1,2.38-6.2,8.72,8.72,0,0,1,6.06-2A8.9,8.9,0,0,1,240,21.69a7.79,7.79,0,0,1,2.34,6.14V40.77a8,8,0,0,1-2.27,6,9.63,9.63,0,0,1-12.3,0,7.91,7.91,0,0,1-2.31-6Zm3.16-9.46,3-4.82h5l2.57,4.82h-3.7l-1.56-2.71-1.79,2.71Zm3.38,23a3.84,3.84,0,0,0,.43,2,1.92,1.92,0,0,0,3.09-.4,5.14,5.14,0,0,0,.24-1.6V27.26a5.18,5.18,0,0,0-.21-1.63,1.66,1.66,0,0,0-1.67-1,1.69,1.69,0,0,0-1.65.92,5.38,5.38,0,0,0-.24,1.67Z"/><path class="cls-2" d="M245.18,48.52V20.11h7.15l5.26,16.75.07-16.75H264V48.52h-7.12L251.59,31l-.07,17.56Z"/><path class="cls-2" d="M266.89,40.77V27.87a7.91,7.91,0,0,1,2.38-6.18,8.67,8.67,0,0,1,6.06-2,10.18,10.18,0,0,1,5.87,1.46,6.23,6.23,0,0,1,2.55,5.5v3.16h-6.21V27q0-2.24-2.07-2.24a1.91,1.91,0,0,0-1.67,1,3.81,3.81,0,0,0-.36,1.63v14a3.84,3.84,0,0,0,.43,2,1.64,1.64,0,0,0,1.46.61,1.86,1.86,0,0,0,2.08-2.13V38.15H275.1V32.89h8.64V48.52H278V46.22A5.77,5.77,0,0,1,272.9,49a5.28,5.28,0,0,1-4.76-2.48A11.07,11.07,0,0,1,266.89,40.77Z"/><path class="cls-2" d="M294.38,25.6V20.11h15V25.6h-4.23V48.52h-6.54V25.6Z"/><path class="cls-2" d="M315.38,37.29l-5.33-17.18h6.75l1.82,9.6,2-9.6h6.65l-5.33,16.71v11.7h-6.54Z"/><path class="cls-2" d="M336.75,25.6V20.11h15V25.6h-4.23V48.52H341V25.6Z"/><path class="cls-2" d="M353.6,48.52V20.11h7.15L366,36.86l.07-16.75h6.33V48.52H365.3L360,31l-.07,17.56Z"/><path class="cls-2" d="M375.31,48.52V20.11h6.54V30.75h3.77V20.11h6.54V48.52h-6.54V36.43h-3.77v12.1Z"/><path class="cls-2" d="M395.06,48.52V20.11h6.54V30.75h3.77V20.11h6.54V48.52h-6.54V36.43H401.6v12.1Z"/><path class="cls-2" d="M423.8,48.52V20.11h10.31L436,34.19l1.91-14.08h10.31V48.52h-6.32V26.45l-3.73,22.08h-4.27l-3.66-22.08-.07,22.08Z"/><path class="cls-2" d="M451.28,27.84a8,8,0,0,1,2.38-6.2,8.72,8.72,0,0,1,6.06-2,8.9,8.9,0,0,1,6.11,2.07,7.79,7.79,0,0,1,2.34,6.14V40.77a8,8,0,0,1-2.27,6,9.63,9.63,0,0,1-12.3,0,7.91,7.91,0,0,1-2.31-6Zm3.16-9.46,3-4.82h5L465,18.38h-3.7l-1.56-2.71-1.79,2.71Zm2.29,32.87h6.11v4.2h-6.11Zm1.09-9.91a3.84,3.84,0,0,0,.43,2,1.92,1.92,0,0,0,3.09-.4,5.14,5.14,0,0,0,.24-1.6V27.26a5.18,5.18,0,0,0-.21-1.63,1.66,1.66,0,0,0-1.67-1,1.69,1.69,0,0,0-1.65.92,5.38,5.38,0,0,0-.24,1.67Z"/><path class="cls-2" d="M469.95,25.6V20.11h15V25.6h-4.23V48.52h-6.54V25.6Z"/><path class="cls-2" d="M494.54,25.6V20.11h15V25.6h-4.23V48.52h-6.54V25.6Z"/><path class="cls-2" d="M511.39,48.52V20.11h6.54V30.75h3.77V20.11h6.54V48.52H521.7V36.43h-3.77v12.1Z"/><path class="cls-2" d="M535.19,20.08h8.68l5.36,28.45h-6.89l-.61-5.05h-4.58l-.68,5.05h-6.54Zm5.15-6.53,1.56,4.82h-3.3l-3.87-4.82Zm-2.52,24.87h3.26l-1.53-13.94Z"/><path class="cls-2" d="M550.89,48.52V20.11H558l5.26,16.75.07-16.75h6.33V48.52h-7.12L557.3,31l-.07,17.56Z"/><path class="cls-2" d="M572.61,48.52V20.11h6.54V30.75h3.77V20.11h6.54V48.52h-6.54V36.43h-3.77v12.1Z"/><path class="cls-2" d="M604.3,48.52,600,20.11h6.68l1.79,20.2,2.24-20.2h6.56L612.4,48.52Z"/><path class="cls-2" d="M619.15,48.52V20.11h6.54V48.52Z"/><path class="cls-2" d="M628.82,20.08h14.54v5.48h-8v5.68h7v5.48h-7V43h8.31v5.48H628.82Zm2.17-1.7,3-4.82h5l2.55,4.82h-3.7l-1.56-2.71-1.77,2.71Z"/><path class="cls-2" d="M646.59,48.52V20.11h7.15L659,36.86l.07-16.75h6.33V48.52h-7.12L653,31l-.07,17.56Z"/><path class="cls-2" d="M221.65,66.13h4.82l0,4.72-2.27,2.4H222.6l0,16.73a8,8,0,0,1-2.27,6A9.63,9.63,0,0,1,208,96a7.91,7.91,0,0,1-2.31-6V69.29h6.54V90a6.15,6.15,0,0,0,.28,2.17q.26.71,1.61.71a1.82,1.82,0,0,0,1.42-.56A4,4,0,0,0,216,90V69.29l5.66.07Zm-8.21-3.37h5.5l-3.77,4.82h-3.42Z"/><path class="cls-2" d="M225.43,97.74V69.33h7.15l5.26,16.75.07-16.75h6.33V97.74h-7.12l-5.29-17.56-.07,17.56Z"/><path class="cls-2" d="M247.14,90V77.08a7.91,7.91,0,0,1,2.38-6.18,8.67,8.67,0,0,1,6.06-2,10.18,10.18,0,0,1,5.87,1.46,6.23,6.23,0,0,1,2.55,5.5V79h-6.21V76.17q0-2.24-2.07-2.24a1.91,1.91,0,0,0-1.67,1,3.81,3.81,0,0,0-.36,1.63v14a3.84,3.84,0,0,0,.43,2,1.64,1.64,0,0,0,1.46.61A1.86,1.86,0,0,0,257.66,91V87.36h-2.31V82.1H264V97.74h-5.73V95.43a5.77,5.77,0,0,1-5.12,2.76,5.28,5.28,0,0,1-4.76-2.48A11.07,11.07,0,0,1,247.14,90Z"/><path class="cls-2" d="M275.71,97.74V69.33h9.74q4,0,5.66,2.17a8.69,8.69,0,0,1,1.46,5.45v13.5a6.78,6.78,0,0,1-7.12,7.29Zm6.54-23.57V92.9h1q2.74,0,2.74-2.41V76.58q0-2.41-2.74-2.41Z"/><path class="cls-2" d="M295.46,69.29H302V90a6.15,6.15,0,0,0,.28,2.17q.26.71,1.61.71a1.82,1.82,0,0,0,1.42-.56,4,4,0,0,0,.45-2.33V69.29h6.58V90a8,8,0,0,1-2.27,6,9.63,9.63,0,0,1-12.3,0,7.91,7.91,0,0,1-2.31-6Zm5.45,31.17H307v4.2h-6.11Z"/><path class="cls-2" d="M315.21,97.74V69.33h7.15l5.26,16.75.07-16.75H334V97.74h-7.12l-5.29-17.56-.07,17.56Z"/><path class="cls-2" d="M336.92,90V77.08a7.91,7.91,0,0,1,2.38-6.18,8.67,8.67,0,0,1,6.06-2,10.18,10.18,0,0,1,5.87,1.46,6.23,6.23,0,0,1,2.55,5.5V79h-6.21V76.17q0-2.24-2.07-2.24a1.91,1.91,0,0,0-1.67,1,3.81,3.81,0,0,0-.36,1.63v14a3.84,3.84,0,0,0,.43,2,1.64,1.64,0,0,0,1.46.61A1.86,1.86,0,0,0,347.44,91V87.36h-2.31V82.1h8.64V97.74H348V95.43a5.77,5.77,0,0,1-5.12,2.76,5.28,5.28,0,0,1-4.76-2.48A11.07,11.07,0,0,1,336.92,90Z"/><path class="cls-2" d="M365.49,97.74V69.33h6.33V81l4.44-11.63h6.92l-5.43,11.77,5.47,16.64h-7l-2.92-10.17-1.53,2.34v7.83Z"/><path class="cls-2" d="M384.06,69.29h6.75l1.82,9.6,2-9.6h6.65L395.93,86v11.7h-6.54V86.51Zm14.54-5.64a7.69,7.69,0,0,1-1.46,2.48,3.47,3.47,0,0,1-2.6,1.08,5.34,5.34,0,0,1-2.2-.61,5.24,5.24,0,0,0-1.87-.57,2.06,2.06,0,0,0-1,.43l-.28.31q-.21.28-.43.54l-1.7-.64c.16-.45.31-.81.43-1.08a4.34,4.34,0,0,1,.82-1.27,2.89,2.89,0,0,1,2.27-1.21,7,7,0,0,1,2.38.54,11.93,11.93,0,0,0,2.07.68,1.77,1.77,0,0,0,1.16-.4,2.25,2.25,0,0,0,.75-1Z"/><path class="cls-2" d="M410.75,74.81V69.33h15v5.48h-4.23V97.74H415V74.81Z"/><path class="cls-2" d="M427.6,97.74V69.33h6.54V80h3.77V69.33h6.54V97.74h-6.54V85.64h-3.77v12.1Z"/><path class="cls-2" d="M447.35,90V69.33h6.54V90a6.15,6.15,0,0,0,.28,2.17q.26.71,1.61.71a1.82,1.82,0,0,0,1.42-.56,4,4,0,0,0,.45-2.33V69.33h6.54V90a7.93,7.93,0,0,1-2.27,6,9.58,9.58,0,0,1-12.27,0A7.91,7.91,0,0,1,447.35,90Z"/><path class="cls-2" d="M471.15,69.29h8.68l5.36,28.45H478.3l-.61-5.05h-4.58l-.68,5.05h-6.54Zm-.89-1.7,3-4.82h5l2.55,4.82h-3.7l-1.56-2.71-1.77,2.71Zm2,32.87h6.11v4.2h-6.11Zm1.49-12.83H477L475.52,73.7Z"/><path class="cls-2" d="M485.78,74.81V69.33h15v5.48h-4.23V97.74H490V74.81Z"/><path class="cls-2" d="M514.57,97.74l-4.34-28.41h6.68l1.79,20.2,2.24-20.2h6.56l-4.82,28.41Z"/><path class="cls-2" d="M533.26,69.29h8.68l5.36,28.45h-6.89l-.61-5.05h-4.58l-.68,5.05H528Zm5.15-6.53L540,67.59h-3.3l-3.87-4.82ZM535.9,87.64h3.26L537.63,73.7Z"/><path class="cls-2" d="M557.52,88.11h6.33v2.1a4.16,4.16,0,0,0,.38,2,2,2,0,0,0,1.82.9,2.19,2.19,0,0,0,1.67-.68,2.15,2.15,0,0,0,.61-1.53q0-1.93-2.38-4l-2.81-2.1a41.26,41.26,0,0,1-3.63-3.19,8.22,8.22,0,0,1-1.25-2.2,9,9,0,0,1-.38-2.66q0-4,2.17-6a8.77,8.77,0,0,1,6.18-2q4.13,0,6.14,1.87a6.83,6.83,0,0,1,2,5.26v2.57H568.3V77.05A5.66,5.66,0,0,0,568,75a1.76,1.76,0,0,0-1.74-1,2.42,2.42,0,0,0-1.63.52A2.09,2.09,0,0,0,564,76q0,1.35,2.53,3.42l2.9,2.24A29.39,29.39,0,0,1,573.8,86,10,10,0,0,1,574.88,91,6.63,6.63,0,0,1,573,95.6q-2.41,2.59-7,2.59-4.37,0-6.65-2.41a6.44,6.44,0,0,1-1.82-4.62Z"/><path class="cls-2" d="M581.58,69.29h8.68l5.36,28.45h-6.89l-.61-5.05h-4.58l-.68,5.05h-6.54Zm2.72-1.49a4.4,4.4,0,0,1,.71-2.12l1.35-1.7a2.69,2.69,0,0,0,.75-1.75,2.4,2.4,0,0,0-.17-1,.8.8,0,0,0-.78-.4.85.85,0,0,0-.75.43,3.29,3.29,0,0,0-.21,1.13v1h-2.64V62.19a3.21,3.21,0,0,1,1-2.41,3.7,3.7,0,0,1,2.71-1,4.49,4.49,0,0,1,2.81.78,3.13,3.13,0,0,1,1,2.52,3.8,3.8,0,0,1-.89,2.38l-1.7,1.82a4.4,4.4,0,0,0-.76,1.48Zm-.09,19.84h3.26L586,73.7Z"/><path class="cls-2" d="M597.28,97.74V69.33h7.15l5.26,16.75.07-16.75h6.33V97.74H609l-5.29-17.56-.07,17.56Z"/><path class="cls-2" d="M627.55,88.11h6.33v2.1a4.16,4.16,0,0,0,.38,2,2,2,0,0,0,1.82.9,2.19,2.19,0,0,0,1.67-.68,2.15,2.15,0,0,0,.61-1.53q0-1.93-2.38-4l-2.81-2.1a41.26,41.26,0,0,1-3.63-3.19,8.22,8.22,0,0,1-1.25-2.2,9,9,0,0,1-.38-2.66q0-4,2.17-6a8.77,8.77,0,0,1,6.18-2q4.13,0,6.14,1.87a6.83,6.83,0,0,1,2,5.26v2.57h-6.11V77.05A5.66,5.66,0,0,0,638,75a1.76,1.76,0,0,0-1.74-1,2.42,2.42,0,0,0-1.63.52A2.09,2.09,0,0,0,634,76q0,1.35,2.53,3.42l2.9,2.24A29.39,29.39,0,0,1,643.83,86,10,10,0,0,1,644.91,91,6.63,6.63,0,0,1,643,95.6q-2.41,2.59-7,2.59-4.37,0-6.65-2.41a6.44,6.44,0,0,1-1.82-4.62Z"/><path class="cls-2" d="M647.56,90V69.33h6.54V90a6.15,6.15,0,0,0,.28,2.17q.26.71,1.61.71a1.82,1.82,0,0,0,1.42-.56,4,4,0,0,0,.45-2.33V69.33h6.54V90a7.93,7.93,0,0,1-2.27,6,9.58,9.58,0,0,1-12.27,0A7.91,7.91,0,0,1,647.56,90Z"/><path class="cls-2" d="M671.36,69.29H680l5.36,28.45h-6.89l-.61-5.05h-4.58l-.68,5.05H666.1Zm-.89-1.7,3-4.82h5L681,67.59h-3.7l-1.56-2.71L674,67.59Zm3.52,20h3.26L675.73,73.7Zm7.6-29.24h5l-3.42,4.32H680.1Z"/><path class="cls-2" d="M686,74.81V69.33h15v5.48h-4.23V97.74h-6.54V74.81Z"/><ellipse class="cls-3" cx="87.92" cy="59.11" rx="81.92" ry="56.73"/><rect class="cls-4" x="18.47" y="50.33" width="8.91" height="20.15"/><polygon class="cls-4" points="14.03 58.91 18.46 50.33 13.82 50.33 14.03 58.91"/><polygon class="cls-4" points="27.43 50.33 31.86 58.91 32.07 50.33 27.43 50.33"/><path class="cls-4" d="M56.07,60.41c0,5.54,3.66,10,8.17,10,.21,0,.42,0,.62,0v-20c-.21,0-.41,0-.62,0C59.73,50.37,56.07,54.87,56.07,60.41Z"/><polygon class="cls-4" points="65.26 50.36 72.78 57.53 72.78 50.36 65.26 50.36"/><polygon class="cls-4" points="72.45 70.46 72.45 63.83 64.94 70.46 72.45 70.46"/><rect class="cls-4" x="37.08" y="50.58" width="7.11" height="20.15"/><polygon class="cls-4" points="51.48 50.61 44.53 50.61 51.48 57.79 51.48 50.61"/><polygon class="cls-4" points="48.83 55.94 44.25 60.37 48.66 64.63 48.83 55.94"/><polygon class="cls-4" points="44.3 70.69 51.71 70.69 51.71 61.82 44.3 70.69"/><polygon class="cls-4" points="90.58 50.33 82.99 50.33 85.41 61.35 83.76 61.35 81.81 53.51 78.4 70.46 85.96 70.46 84.18 63.28 85.83 63.28 87.41 70.48 95 70.48 90.58 50.33"/><rect class="cls-4" x="99.19" y="50.33" width="7.24" height="20.15"/><path class="cls-4" d="M108.19,50.44V62.11s8.31.76,8.4-5.25C116.7,49.27,108.19,50.44,108.19,50.44Z"/><rect class="cls-4" x="121.09" y="50.33" width="7.64" height="20.15"/><path class="cls-4" d="M131.41,60.84c2,0,8.11-.25,8.19-4.69.12-6.75-8.86-5.71-8.86-5.71V60.68l0,9.82h9.82Z"/><path class="cls-4" d="M143.71,60.41c0,5.41,3.64,9.8,8.22,10.07V50.34C147.35,50.6,143.71,55,143.71,60.41Z"/><path class="cls-4" d="M153.89,50.36v20.1c4.43-.44,7.91-4.77,7.91-10S158.31,50.8,153.89,50.36Z"/><path class="cls-5" d="M56.66,80.17h-17c11,11.36,28.12,18.41,46.53,18.72V91.37A48.23,48.23,0,0,1,56.66,80.17Z"/><path class="cls-5" d="M135.24,80.17h-17A48.22,48.22,0,0,1,88.65,91.38v7.51C107.09,98.59,124.19,91.54,135.24,80.17Z"/><path class="cls-5" d="M114.86,80.17H88.65v9.12A46.1,46.1,0,0,0,114.86,80.17Z"/><path class="cls-5" d="M60,80.17a46.09,46.09,0,0,0,26.15,9.12V80.17Z"/><path class="cls-5" d="M36.81,80.17H25.1c10.7,16,34,27.18,61.06,27.52V101C66.44,100.65,48.17,92.78,36.81,80.17Z"/><path class="cls-5" d="M149.77,80.17H138.06C126.69,92.79,108.4,100.66,88.65,101v6.72C115.78,107.36,139.06,96.18,149.77,80.17Z"/><polygon class="cls-5" points="30.06 40.93 49.92 40.93 84.36 14.63 30.06 40.93"/><path class="cls-5" d="M53.33,40.93h69.33L88.21,14.3ZM91.58,25.43l9.37-.09-7.64,5,3,8.19-7.53-5.15-7.53,5.15,3-8.19-7.63-5,9.37.09,2.81-8.24Z"/><path class="cls-5" d="M93.76,13.2l55.87,27.73h.4C140.11,25.72,118.9,14.79,93.76,13.2Z"/><polygon class="cls-5" points="126.06 40.93 144.95 40.93 92.13 14.72 126.06 40.93"/><path class="cls-5" d="M24.84,40.93h.45L82.72,13.11C56.88,14.32,35,25.4,24.84,40.93Z"/></g></g></svg>