<svg xmlns="http://www.w3.org/2000/svg" viewBox="0 0 18.05 20"><defs><style>.cls-1,.cls-2{fill:#68301a;}.cls-2{fill-rule:evenodd;}</style></defs><title>cac phan hoi</title><g id="Layer_2" data-name="Layer 2"><g id="Layer_1-2" data-name="Layer 1"><path class="cls-1" d="M16.5,0h-15A1.52,1.52,0,0,0,0,1.52V17.28A1.53,1.53,0,0,0,1.53,18.8h2.3V17.39a.25.25,0,0,0-.25-.25h-1a.89.89,0,0,1-.89-.89V2.37a.7.7,0,0,1,.7-.7H15.47a.89.89,0,0,1,.89.89V6.69L18,6.81V1.53A1.53,1.53,0,0,0,16.5,0Z"/><path class="cls-2" d="M12.94,10.05a.18.18,0,0,1,.31-.13s3.64,3.37,3.68,3.37h.93a.18.18,0,0,0,.18-.18V8.29a.18.18,0,0,0-.18-.18H8.78a.18.18,0,0,1-.18-.18V7.09A.18.18,0,0,0,8.29,7l-3.6,3.46a.18.18,0,0,0,0,.27l1.44,1.37a.18.18,0,0,0,.13.05h6.69Zm5,5.89-3.93-3.78a.18.18,0,0,0-.31.13v.78a.18.18,0,0,1-.18.18H4.73a.18.18,0,0,0-.18.18v5.28a.18.18,0,0,0,.18.18h8.84a.18.18,0,0,1,.18.18v.74a.18.18,0,0,0,.31.13L18,16.2A.18.18,0,0,0,18,15.94Z"/></g></g></svg>