<svg xmlns="http://www.w3.org/2000/svg" viewBox="0 0 19.99 20"><defs><style>.cls-1{fill:#68301a;}</style></defs><title>chuc nang khac</title><g id="Layer_2" data-name="Layer 2"><g id="Layer_1-2" data-name="Layer 1"><path class="cls-1" d="M4.28,0H.94A1,1,0,0,0,0,1v3.4a1,1,0,0,0,.94,1H4.28a1,1,0,0,0,.94-1V1a1,1,0,0,0-.94-1"/><path class="cls-1" d="M11.63,0H8.3a1,1,0,0,0-.94,1v3.4a1,1,0,0,0,.94,1h3.33a1,1,0,0,0,.94-1V1a1,1,0,0,0-.94-1"/><path class="cls-1" d="M19.05,0H15.72a1,1,0,0,0-.94,1v3.4a1,1,0,0,0,.94,1h3.33a1,1,0,0,0,.94-1V1a1,1,0,0,0-.94-1"/><path class="cls-1" d="M4.28,7.31H.94a1,1,0,0,0-.94,1v3.4a1,1,0,0,0,.94,1H4.28a1,1,0,0,0,.94-1V8.27a1,1,0,0,0-.94-1"/><path class="cls-1" d="M11.63,7.31H8.3a1,1,0,0,0-.94,1v3.4a1,1,0,0,0,.94,1h3.33a1,1,0,0,0,.94-1V8.27a1,1,0,0,0-.94-1"/><path class="cls-1" d="M19.05,7.31H15.72a1,1,0,0,0-.94,1v3.4a1,1,0,0,0,.94,1h3.33a1,1,0,0,0,.94-1V8.27a1,1,0,0,0-.94-1"/><path class="cls-1" d="M4.28,14.68H.94a1,1,0,0,0-.94,1V19a1,1,0,0,0,.94,1H4.28a1,1,0,0,0,.94-1v-3.4a1,1,0,0,0-.94-1"/><path class="cls-1" d="M11.63,14.68H8.3a1,1,0,0,0-.94,1V19a1,1,0,0,0,.94,1h3.33a1,1,0,0,0,.94-1v-3.4a1,1,0,0,0-.94-1"/><path class="cls-1" d="M19.05,14.68H15.72a1,1,0,0,0-.94,1V19a1,1,0,0,0,.94,1h3.33A1,1,0,0,0,20,19v-3.4a1,1,0,0,0-.94-1"/></g></g></svg>