<svg xmlns="http://www.w3.org/2000/svg" viewBox="0 0 20 14.38"><defs><style>.cls-1{fill:#68301a;}</style></defs><title>chuyen tiep</title><g id="Layer_2" data-name="Layer 2"><g id="Layer_1-2" data-name="Layer 1"><path class="cls-1" d="M.35.34A1.12,1.12,0,0,0,0,1.16V13.24a1.07,1.07,0,0,0,.35.8,1.15,1.15,0,0,0,.83.34H6.92v-1H1.18a.12.12,0,0,1-.11-.09V2.75l7.55,7.46a.52.52,0,0,0,.38.15H9a.52.52,0,0,0,.38-.15L17,2.75V5.52h1.08V1.16a1.12,1.12,0,0,0-.34-.82A1.16,1.16,0,0,0,16.87,0H1.18A1.15,1.15,0,0,0,.35.34"/><path class="cls-1" d="M8.1,13a.49.49,0,0,0,.1.64.58.58,0,0,0,.66.06h0a15.27,15.27,0,0,1,3.47-1.3,11.72,11.72,0,0,1,2.47-.27h.36v1.79a.53.53,0,0,0,.34.48.59.59,0,0,0,.2,0,.51.51,0,0,0,.37-.15l3.72-3.58a.49.49,0,0,0,0-.74l-3.72-3.6a.51.51,0,0,0-.58-.11.48.48,0,0,0-.34.48V8.51a11.86,11.86,0,0,0-1.9.5,10,10,0,0,0-2.84,1.5,9.37,9.37,0,0,0-1.69,1.57,7.05,7.05,0,0,0-.65.86ZM14.83,11a13.3,13.3,0,0,0-4.2.69,10.17,10.17,0,0,1,5.19-2.24A.52.52,0,0,0,16.27,9v-1l2.42,2.35-2.42,2.32v-1a.53.53,0,0,0-.48-.52,9.66,9.66,0,0,0-1,0"/></g></g></svg>