<svg xmlns="http://www.w3.org/2000/svg" viewBox="0 0 77.41 77.5"><defs><style>.cls-1{fill:#40a840;}</style></defs><title>cong_nghe_thong_tin1</title><g id="Layer_2" data-name="Layer 2"><g id="Layer_1-2" data-name="Layer 1"><path class="cls-1" d="M19.07,68.95c-4,0-7.32-1.91-10.26-5.82A39.89,39.89,0,0,1,2.22,51c-.34-1.13-.3-1.79.87-2.46a79.43,79.43,0,0,1,19.74-8.37,3.52,3.52,0,0,1,.86-.15c.94,0,1.08.9,1.13,1.24a44.41,44.41,0,0,0,7.94,19.16l.15.2-.08.23c-.21.62-.4,1.08-.58,1.53s-.33.8-.49,1.29-.33,1.05-.51,1.64-.39,1.3-.58,1.87l-.09.28-3.23.47-6.42.91A13.32,13.32,0,0,1,19.07,68.95Zm4.67-28a2.77,2.77,0,0,0-.67.11,78.56,78.56,0,0,0-19.5,8.27c-.66.38-.7.5-.44,1.36A39,39,0,0,0,9.57,62.56c3.16,4.22,6.79,5.94,11.21,5.32L27.2,67l2.66-.38c.16-.49.32-1,.48-1.56s.36-1.19.52-1.68.34-.92.51-1.34.31-.76.48-1.25a45.37,45.37,0,0,1-8-19.37c-.06-.36-.13-.43-.13-.43Z"/><path class="cls-1" d="M19.07,69.2c-4.05,0-7.47-1.94-10.46-5.92A40.13,40.13,0,0,1,2,51c-.36-1.21-.31-2,1-2.75a79.75,79.75,0,0,1,19.8-8.39,3.79,3.79,0,0,1,.93-.16c.76,0,1.23.49,1.38,1.45A44.16,44.16,0,0,0,33,60.24l.22.3-.12.36c-.21.62-.4,1.08-.58,1.53l0,.08c-.15.38-.31.75-.46,1.22s-.33,1-.51,1.63-.39,1.3-.58,1.88l-.14.42-3.38.49-6.42.92A13.71,13.71,0,0,1,19.07,69.2Zm4.62-29a3.35,3.35,0,0,0-.8.14A79.17,79.17,0,0,0,3.21,48.72c-1,.59-1.08,1.08-.76,2.17A39.68,39.68,0,0,0,9,63c3.32,4.43,7.17,6.25,11.87,5.59l6.42-.91,3.08-.44,0-.13c.19-.57.39-1.23.58-1.86s.35-1.18.51-1.65.32-.86.47-1.24l0-.06c.18-.45.37-.91.58-1.51l0-.11-.07-.09a44.67,44.67,0,0,1-8-19.27C24.5,40.76,24.33,40.24,23.69,40.24Zm-4.6,28c-3.75,0-6.94-1.83-9.72-5.54A39.22,39.22,0,0,1,2.89,50.76c-.29-1-.22-1.21.55-1.65A78.82,78.82,0,0,1,23,40.81a3,3,0,0,1,.73-.12l.15,0,0,0a1.1,1.1,0,0,1,.2.57A45.13,45.13,0,0,0,32.05,60.6l.08.11,0,.12c-.17.49-.33.88-.48,1.25s-.34.83-.51,1.34-.34,1.07-.52,1.67-.32,1.07-.48,1.57l0,.15-2.81.4-6.42.92A12.48,12.48,0,0,1,19.09,68.25Zm4.5-27a3.42,3.42,0,0,0-.47.1A78.31,78.31,0,0,0,3.69,49.54c-.55.32-.55.32-.32,1.07A38.76,38.76,0,0,0,9.77,62.41c3.08,4.11,6.66,5.82,11,5.22l6.41-.91,2.5-.36c.14-.45.29-.94.43-1.41s.36-1.2.52-1.69.34-.93.52-1.36.28-.69.43-1.12a45.65,45.65,0,0,1-7.93-19.37A1.88,1.88,0,0,0,23.6,41.2Z"/><path class="cls-1" d="M.4,46.1v-.75c0-1.26,0-2.5-.08-3.71a48.57,48.57,0,0,1,.16-7.72A38.89,38.89,0,0,1,8.19,15.19c1.52-2,3.09-2.67,5.3-2.26,1.91.37,3.81.76,5.39,1.08l1.79.36.11.18c.43.73.82,1.41,1.18,2.06a29.47,29.47,0,0,0,2.32,3.71,3.67,3.67,0,0,1,.93,2.94c-.19,1.69-.35,3.39-.51,5.09-.21,2.17-.43,4.41-.69,6.62a2.55,2.55,0,0,1-1.49,1.92,79.86,79.86,0,0,0-19.61,8c-.24.14-.5.26-.92.45l-.93.44ZM12.34,13.77a4.07,4.07,0,0,0-3.39,2A38,38,0,0,0,1.43,34a47.91,47.91,0,0,0-.16,7.57c0,1,.06,2,.07,3l.26-.12c.38-.18.62-.29.84-.41A80.78,80.78,0,0,1,22.29,36a1.75,1.75,0,0,0,.79-1.12c.26-2.19.48-4.43.69-6.59.16-1.7.33-3.41.51-5.11a2.74,2.74,0,0,0-.74-2.25,30.33,30.33,0,0,1-2.4-3.82c-.33-.59-.68-1.2-1.06-1.86l-1.38-.28c-1.57-.32-3.47-.71-5.38-1.08A5.21,5.21,0,0,0,12.34,13.77Z"/><path class="cls-1" d="M.15,46.5V45.35c0-1.28,0-2.57-.08-3.7a48.8,48.8,0,0,1,.16-7.76A39.15,39.15,0,0,1,8,15c1.57-2.08,3.23-2.79,5.55-2.35,1.91.37,3.81.76,5.38,1.08l1.91.39.16.28c.43.73.82,1.41,1.18,2.06a29.11,29.11,0,0,0,2.3,3.67,3.94,3.94,0,0,1,1,3.12c-.18,1.62-.33,3.25-.49,4.87l0,.22c-.2,2.06-.42,4.39-.69,6.62a2.79,2.79,0,0,1-1.68,2.14A79.58,79.58,0,0,0,3,45.11c-.24.14-.5.26-.9.44l-1,.45ZM12.3,13.07a4.71,4.71,0,0,0-3.91,2.28A38.65,38.65,0,0,0,.73,34a48.32,48.32,0,0,0-.16,7.68c0,1.14.08,2.43.08,3.72v.36L1,45.55l.93-.44c.42-.2.66-.31.9-.44a80.05,80.05,0,0,1,19.67-8,2.34,2.34,0,0,0,1.31-1.71c.27-2.23.49-4.56.69-6.61l0-.22c.16-1.63.31-3.25.49-4.88a3.41,3.41,0,0,0-.88-2.76,29.67,29.67,0,0,1-2.34-3.74c-.36-.64-.75-1.32-1.18-2l-.05-.09-1.68-.34c-1.58-.32-3.48-.71-5.39-1.08A6.24,6.24,0,0,0,12.3,13.07ZM1.1,45v-.39c0-1,0-2-.07-3A48.17,48.17,0,0,1,1.18,34,38.21,38.21,0,0,1,8.75,15.61c1.36-1.81,2.7-2.37,4.62-2s3.81.75,5.38,1.08l1.49.3.06.1c.39.66.73,1.27,1.06,1.86a30.17,30.17,0,0,0,2.38,3.79,3,3,0,0,1,.79,2.43c-.19,1.7-.35,3.4-.51,5.1-.2,2-.42,4.37-.69,6.6a1.93,1.93,0,0,1-1,1.33A80.54,80.54,0,0,0,2.57,44.29c-.22.13-.45.23-.82.4l-.07,0Zm.49-.6.06.07-.06-.12ZM12.34,14a3.85,3.85,0,0,0-3.19,1.9A37.72,37.72,0,0,0,1.67,34.07a47.69,47.69,0,0,0-.16,7.52c0,.87.06,1.74.07,2.63.32-.15.54-.25.74-.36a81,81,0,0,1,19.9-8.12,1.62,1.62,0,0,0,.61-.91c.27-2.22.49-4.54.68-6.59.16-1.71.33-3.41.52-5.11a2.5,2.5,0,0,0-.69-2.07,30.3,30.3,0,0,1-2.4-3.82c-.33-.59-.66-1.17-1-1.79l-1.27-.26c-1.57-.32-3.47-.71-5.38-1.08A4.94,4.94,0,0,0,12.34,14Z"/><path class="cls-1" d="M59.7,30.66c-1.5,0-2.64-1-3.74-1.94l-.28-.24A77.92,77.92,0,0,0,37.07,16.71l-.29-.13,0-.32c.15-2.77-.41-4.69-1.82-6.25-.4-.45-.06-1.48.26-1.86,1.06-1.23,2.14-2.45,3.23-3.66s1.92-2.15,2.86-3.24a2.68,2.68,0,0,1,2.08-1A5.8,5.8,0,0,1,45.34.7c.23.08.46.16.67.22A92.69,92.69,0,0,1,56.88,4.73a5.88,5.88,0,0,1,2.73,2.83,35.12,35.12,0,0,1,3.5,14.35c0,1.78,0,3.56,0,5.37v2.8l-.45,0h-.75a.84.84,0,0,0-.29,0A4,4,0,0,1,59.7,30.66ZM37.75,16A78.65,78.65,0,0,1,56.3,27.76l.28.24c1,.88,2,1.71,3.12,1.71a3.11,3.11,0,0,0,1.48-.42,1.52,1.52,0,0,1,.74-.15h.25V27.27c0-1.8,0-3.58,0-5.35A34.18,34.18,0,0,0,58.75,8,4.9,4.9,0,0,0,56.52,5.6,91.68,91.68,0,0,0,45.76,1.83c-.24-.06-.48-.15-.74-.25a5,5,0,0,0-1.61-.39A1.72,1.72,0,0,0,42,1.87C41.1,3,40.13,4,39.17,5.11S37,7.53,36,8.76a1.39,1.39,0,0,0-.22.68A9,9,0,0,1,37.75,16Z"/><path class="cls-1" d="M59.7,30.91c-1.6,0-2.77-1-3.9-2l-.28-.24A77.61,77.61,0,0,0,37,16.94l-.45-.21,0-.49c.14-2.7-.4-4.57-1.75-6.06-.51-.58-.12-1.75.26-2.2,1.09-1.27,2.23-2.54,3.23-3.66s1.92-2.15,2.86-3.23A2.91,2.91,0,0,1,43.41,0a6,6,0,0,1,2,.46c.26.09.46.17.65.22A93.14,93.14,0,0,1,57,4.5a6.15,6.15,0,0,1,2.87,3A35.37,35.37,0,0,1,63.36,21.9c0,1.73,0,3.43,0,5.22v3.19l-.69,0h-1A4.24,4.24,0,0,1,59.7,30.91ZM37,16.42l.14.06A78.16,78.16,0,0,1,55.84,28.29l.28.24c1.06.92,2.16,1.88,3.57,1.88a3.79,3.79,0,0,0,1.81-.5.87.87,0,0,1,.41-.07h1V27.12c0-1.79,0-3.48,0-5.21A34.85,34.85,0,0,0,59.39,7.66,5.62,5.62,0,0,0,56.79,5a92.65,92.65,0,0,0-10.84-3.8c-.2-.05-.41-.13-.63-.21l-.06,0A5.61,5.61,0,0,0,43.41.5a2.44,2.44,0,0,0-1.89.91c-.94,1.09-1.9,2.16-2.86,3.24S36.51,7,35.43,8.3c-.3.35-.54,1.23-.27,1.54,1.45,1.6,2,3.58,1.88,6.42ZM59.7,30c-1.24,0-2.23-.86-3.28-1.76L56.14,28A78.42,78.42,0,0,0,37.65,16.21l-.15-.07V16a8.76,8.76,0,0,0-2-6.37l-.06-.07V9.44a1.61,1.61,0,0,1,.28-.84C36.85,7.34,38,6.07,39,4.95s1.92-2.16,2.87-3.24A2,2,0,0,1,43.41.95a5.18,5.18,0,0,1,1.7.4c.27.1.51.18.73.24A91.8,91.8,0,0,1,56.62,5.37,5.16,5.16,0,0,1,59,7.85a34.42,34.42,0,0,1,3.43,14.07c0,1.77,0,3.5,0,5.34V29.4h-.51a1.29,1.29,0,0,0-.62.12A3.36,3.36,0,0,1,59.7,30ZM38,15.82A78.82,78.82,0,0,1,56.46,27.57l.28.24c1,.85,1.9,1.64,3,1.64a2.86,2.86,0,0,0,1.36-.39,1.74,1.74,0,0,1,.86-.18h0V27.27c0-1.85,0-3.58,0-5.34A33.92,33.92,0,0,0,58.53,8.06a4.62,4.62,0,0,0-2.1-2.22A91.21,91.21,0,0,0,45.69,2.08c-.23-.06-.47-.15-.72-.24a5,5,0,0,0-1.56-.39A1.47,1.47,0,0,0,42.23,2c-.94,1.09-1.9,2.16-2.86,3.24s-2.14,2.4-3.22,3.66a1.18,1.18,0,0,0-.15.43A9.13,9.13,0,0,1,38,15.82Z"/><path class="cls-1" d="M44.15,60.56a1.3,1.3,0,0,1-.84-.24,6.57,6.57,0,0,0-4.41-1.38c-.88,0-1.77.09-2.71.18l-.38,0-.16-.22a45.56,45.56,0,0,1-8-19.68l-.08-.49.49-.06L31,38.35c2.31-.28,4.71-.56,7.07-.77a68.32,68.32,0,0,1,7.76-.36c1.93,0,3.87.28,5.75.51l1.9.23a1.69,1.69,0,0,1,1.18.74c.86,1.49,1.69,3,2.59,4.63l1.08,1.95-.12.23A41.89,41.89,0,0,1,45.45,60.2,2.41,2.41,0,0,1,44.15,60.56ZM38.9,58a7.45,7.45,0,0,1,5,1.6.8.8,0,0,0,.24,0,1.51,1.51,0,0,0,.75-.19A40.92,40.92,0,0,0,57.29,45.28l-.83-1.5c-.9-1.62-1.73-3.12-2.59-4.61a.78.78,0,0,0-.46-.27l-1.91-.23c-1.86-.23-3.78-.46-5.66-.51a66.75,66.75,0,0,0-7.65.36c-2.34.21-4.73.49-7,.77l-2.44.29a44.5,44.5,0,0,0,7.57,18.57C37.14,58.07,38,58,38.9,58Z"/><path class="cls-1" d="M44.16,60.81a1.55,1.55,0,0,1-1-.29,6.33,6.33,0,0,0-4.26-1.33c-.87,0-1.76.09-2.69.18l-.52.05-.24-.34a45.79,45.79,0,0,1-8-19.79l-.12-.75.75-.09,2.35-.28.59-.07c2.2-.26,4.69-.56,7.08-.77A70.32,70.32,0,0,1,45.86,37c1.94,0,3.89.29,5.78.52l1.9.22a1.93,1.93,0,0,1,1.37.86c.86,1.5,1.71,3,2.59,4.63l1.15,2.07-.18.35A42.15,42.15,0,0,1,45.59,60.41,2.64,2.64,0,0,1,44.16,60.81Zm-5.25-2.12a6.8,6.8,0,0,1,4.57,1.44,1.07,1.07,0,0,0,.68.18A2.19,2.19,0,0,0,45.31,60,41.66,41.66,0,0,0,58,45.38l.06-.11-1-1.83c-.89-1.61-1.73-3.12-2.59-4.62a1.44,1.44,0,0,0-1-.62L51.58,38c-1.87-.23-3.81-.46-5.73-.51a68.46,68.46,0,0,0-7.73.36c-2.38.21-4.87.51-7.06.77l-.59.07-2.35.28-.23,0,0,.23a45.3,45.3,0,0,0,7.93,19.58l.08.1.23,0C37.11,58.77,38,58.69,38.91,58.69Zm5.25,1.17a1,1,0,0,1-.34,0l-.06,0a7.21,7.21,0,0,0-4.85-1.54c-.85,0-1.72.08-2.61.17h-.14l-.08-.12a44.71,44.71,0,0,1-7.61-18.67l0-.26.26,0L31.11,39l.18,0c2.25-.27,4.58-.55,6.86-.75a68.3,68.3,0,0,1,7.68-.36c1.9,0,3.82.28,5.68.51l1.91.23a1,1,0,0,1,.65.39c.88,1.52,1.75,3.09,2.59,4.62l.9,1.62-.07.12A41.15,41.15,0,0,1,45,59.63,1.74,1.74,0,0,1,44.16,59.86ZM44,59.35h.13a1.3,1.3,0,0,0,.6-.14A40.64,40.64,0,0,0,57,45.28l-.76-1.38c-.84-1.52-1.71-3.09-2.58-4.61a.61.61,0,0,0-.27-.15l-1.92-.23c-1.85-.23-3.77-.46-5.64-.5a68.26,68.26,0,0,0-7.62.36c-2.28.2-4.6.48-6.85.75l-.18,0L29,39.8a44.17,44.17,0,0,0,7.4,18.09c.85-.08,1.69-.16,2.52-.16A7.69,7.69,0,0,1,44,59.35Z"/><path class="cls-1" d="M54.77,73.59a1.66,1.66,0,0,1-.72-.14c-2-1-4.18-2.1-6.93-3.6a2.31,2.31,0,0,1-.82-.88l-.11-.14,0-.23c0-.26,0-.43,0-.56a1.57,1.57,0,0,0,0-.19l0-.13,0-.11a9.22,9.22,0,0,0,.31-3.15c-.1-1.24,1-2,2.11-2.76.36-.25.73-.5,1-.77A43.89,43.89,0,0,0,61.1,46.87a4.1,4.1,0,0,1,3.7-2.19,3.62,3.62,0,0,1,3.09,1.55c1.89,2.83,3.45,5.22,4.9,7.71a3.31,3.31,0,0,1,.06,2.84A39.58,39.58,0,0,1,56,73.29,2.77,2.77,0,0,1,54.77,73.59Zm-7.63-5.08a1.44,1.44,0,0,0,.44.5c2.73,1.49,4.86,2.6,6.89,3.58a1.66,1.66,0,0,0,1.1-.14A38.65,38.65,0,0,0,72,56.33,2.39,2.39,0,0,0,72,54.42c-1.44-2.47-3-4.85-4.87-7.66a2.68,2.68,0,0,0-2.3-1.13,3.15,3.15,0,0,0-2.85,1.66,44.85,44.85,0,0,1-11.6,14.36c-.35.3-.74.56-1.12.83-.91.62-1.76,1.21-1.71,1.91a10.38,10.38,0,0,1-.33,3.44,2.48,2.48,0,0,1,0,.31C47.17,68.23,47.15,68.35,47.14,68.51Z"/><path class="cls-1" d="M54.77,73.84a1.9,1.9,0,0,1-.82-.17c-2.05-1-4.19-2.1-6.94-3.6a2.55,2.55,0,0,1-.91-1L46,68.92l0-.3c0-.25,0-.41,0-.52l0-.15a.48.48,0,0,0,0-.07l0-.17.08-.18a9,9,0,0,0,.29-3c-.12-1.38,1.12-2.24,2.22-3,.37-.26.73-.5,1-.75a43.64,43.64,0,0,0,11.3-14,4.35,4.35,0,0,1,3.93-2.33,3.86,3.86,0,0,1,3.29,1.66c1.9,2.83,3.46,5.23,4.91,7.72a3.54,3.54,0,0,1,.07,3.09,39.81,39.81,0,0,1-17,16.61A3,3,0,0,1,54.77,73.84Zm-8.33-5.11.06.09a2.17,2.17,0,0,0,.73.81c2.74,1.5,4.88,2.61,6.92,3.59a2.21,2.21,0,0,0,1.72-.15A39.33,39.33,0,0,0,72.63,56.66a3.08,3.08,0,0,0-.06-2.6c-1.45-2.48-3-4.87-4.89-7.7a3.37,3.37,0,0,0-2.88-1.44A3.85,3.85,0,0,0,61.32,47,44.14,44.14,0,0,1,49.9,61.12c-.32.27-.69.52-1,.77-1.1.76-2.12,1.46-2,2.55a9.49,9.49,0,0,1-.32,3.26l0,.05v.05a.79.79,0,0,1,0,.19v.15c0,.12,0,.27,0,.47Zm8.31,4.15a.94.94,0,0,1-.39-.07c-2-1-4.17-2.09-6.9-3.58a1.6,1.6,0,0,1-.53-.59l0-.07,0-.46a2.06,2.06,0,0,0,0-.28v-.08a10.13,10.13,0,0,0,.31-3.34c-.07-.84.84-1.46,1.81-2.13.39-.27.77-.53,1.11-.81A44.59,44.59,0,0,0,61.72,47.18a3.4,3.4,0,0,1,3.08-1.8,2.93,2.93,0,0,1,2.51,1.24c1.88,2.8,3.43,5.18,4.88,7.67a2.61,2.61,0,0,1,.06,2.16A38.9,38.9,0,0,1,55.68,72.67,2.18,2.18,0,0,1,54.75,72.89ZM47.4,68.45a1,1,0,0,0,.3.34c2.73,1.49,4.85,2.59,6.88,3.57a1.51,1.51,0,0,0,.87-.14,38.41,38.41,0,0,0,16.35-16,2.16,2.16,0,0,0,0-1.67c-1.45-2.48-3-4.85-4.86-7.64a2.44,2.44,0,0,0-2.09-1,2.9,2.9,0,0,0-2.63,1.52A45.1,45.1,0,0,1,50.51,61.84c-.35.3-.75.57-1.12.83-.83.57-1.66,1.14-1.62,1.69a10.73,10.73,0,0,1-.32,3.49,3,3,0,0,1,0,.3Z"/><path class="cls-1" d="M27,35.59l1.26-12.1.23-.12,2-1c1.49-.77,2.66-1.38,3.91-1.93a3.12,3.12,0,0,1,2.55-.18c4.77,2.87,9.67,5.92,15,9.31a16.18,16.18,0,0,1,2.39,2l.66.63a3.92,3.92,0,0,1,.62.83l.21.32.32.46-.5.24a4.34,4.34,0,0,0-.4.23,2.37,2.37,0,0,1-1.19.45c-.88,0-1.75-.1-2.58-.17s-2-.17-3-.17c-5.21,0-9.42.14-13.31.33-1.59.08-3.22.29-4.94.52-.85.11-1.74.23-2.68.34ZM29.11,24.1,28,34.51l2.08-.27c1.74-.23,3.38-.45,5-.53,3.91-.19,8.12-.29,13.27-.33h0c1.11,0,2.14.09,3.13.18.82.07,1.66.15,2.49.17h0a1.74,1.74,0,0,0,.7-.31h0a2.86,2.86,0,0,0-.42-.56l-.67-.63a15.46,15.46,0,0,0-2.25-1.89c-5.29-3.39-10.18-6.43-14.94-9.3a.75.75,0,0,0-.38-.07,3.55,3.55,0,0,0-1.3.31c-1.22.54-2.38,1.14-3.86,1.9Z"/><path class="cls-1" d="M26.68,35.87,28,23.32l.35-.18,1.82-.93.21-.11c1.43-.74,2.66-1.37,3.92-1.94A3.34,3.34,0,0,1,37.07,20c4.81,2.89,9.7,5.94,15,9.31a16.39,16.39,0,0,1,2.43,2l.06.06.59.56a4.06,4.06,0,0,1,.66.87l.21.32.48.7-.77.36a4,4,0,0,0-.37.21,2.61,2.61,0,0,1-1.32.49c-.89,0-1.75-.1-2.58-.17-1-.09-2-.17-3-.17-5.17,0-9.4.14-13.3.33-1.59.08-3.2.29-4.91.52-.85.11-1.74.23-2.68.34Zm1.77-12.23L27.25,35.3l.28,0c.94-.11,1.82-.23,2.68-.34,1.72-.23,3.35-.44,5-.52,3.91-.18,8.14-.29,13.32-.33,1,0,2.06.09,3,.17s1.69.15,2.56.17A2.15,2.15,0,0,0,55.08,34a4.55,4.55,0,0,1,.42-.24l.24-.11-.15-.22-.21-.33a3.78,3.78,0,0,0-.58-.78l-.6-.56-.06-.06a15.93,15.93,0,0,0-2.35-2c-5.27-3.37-10.16-6.42-15-9.31a2.89,2.89,0,0,0-2.32.2c-1.25.55-2.48,1.19-3.9,1.92l-.21.11-1.82.94Zm-.71,11.15,1.13-10.86.12-.06L30.72,23l.08,0c1.5-.78,2.66-1.37,3.87-1.91a2.64,2.64,0,0,1,1.91-.23c4.8,2.89,9.69,5.93,15,9.3A15.6,15.6,0,0,1,53.82,32l.67.63a3.14,3.14,0,0,1,.46.61l.13.21-.2.13A1.89,1.89,0,0,1,54,34c-.86,0-1.74-.1-2.51-.17-1-.09-2-.18-3.11-.18-5.15,0-9.37.14-13.26.33-1.62.08-3.25.3-5,.52l-2.09.27Zm1.6-10.54-1,10L30.07,34c1.75-.23,3.39-.45,5-.53,3.9-.19,8.12-.29,13.28-.33,1.14,0,2.21.09,3.16.18.76.07,1.63.14,2.47.17a1.05,1.05,0,0,0,.36-.16,1.88,1.88,0,0,0-.24-.3l-.67-.63a15.15,15.15,0,0,0-2.21-1.86C46,27.16,41.12,24.12,36.33,21.24a.58.58,0,0,0-.25,0,3.31,3.31,0,0,0-1.2.29c-1.2.53-2.35,1.13-3.81,1.88l-.12.06Z"/><path class="cls-1" d="M77.07,40.61,75,39.9c-1.42-.48-2.77-.94-4.1-1.48-.54-.22-.84-.86-1.08-1.38a15.43,15.43,0,0,1-.63-1.64,6.05,6.05,0,0,0-1.29-2.55c-1.6-1.44-1.58-3-1.57-4.58,0-.34,0-.69,0-1l-.09-2c-.12-2.86-.25-5.82-.5-8.72a19.28,19.28,0,0,0-.45-2.56c-.16-.74-.33-1.51-.43-2.29l-.18-1.4,1,1c8.24,8.46,12,17.85,11.42,28.71Zm-11-27.53.15.66a20.51,20.51,0,0,1,.47,2.69c.25,2.92.38,5.89.5,8.76l.09,2c0,.36,0,.73,0,1.09,0,1.46,0,2.72,1.26,3.87a6.78,6.78,0,0,1,1.56,3,14.88,14.88,0,0,0,.55,1.47c.17.36.42.9.61,1,1.3.53,2.64,1,4,1.46l.86.29C76.54,29.47,73.23,20.87,66.09,13.07Z"/><path class="cls-1" d="M77.3,40.95l-2.45-.84c-1.4-.48-2.72-.93-4-1.46a2.66,2.66,0,0,1-1.21-1.5A15.57,15.57,0,0,1,69,35.48,5.92,5.92,0,0,0,67.76,33c-1.68-1.51-1.67-3.25-1.65-4.77,0-.34,0-.68,0-1l-.09-2c-.12-2.85-.25-5.8-.5-8.71A19.11,19.11,0,0,0,65.07,14c-.16-.71-.33-1.51-.44-2.31l-.27-2.14,1.51,1.55c8.29,8.51,12,18,11.49,28.9ZM65,11l.08.66c.1.78.27,1.57.43,2.26a19.46,19.46,0,0,1,.46,2.6c.25,2.92.38,5.87.5,8.73l.09,2c0,.35,0,.7,0,1.05,0,1.56,0,3,1.49,4.4a6.21,6.21,0,0,1,1.36,2.66,15.22,15.22,0,0,0,.62,1.62c.22.48.5,1.07.95,1.25,1.3.53,2.61,1,4,1.45l1.82.63V40c.55-10.78-3.16-20.11-11.34-28.52ZM76.42,39.64l-1.28-.43c-1.38-.47-2.68-.91-4-1.43-.24-.1-.44-.45-.74-1.1a14.64,14.64,0,0,1-.56-1.47,6.67,6.67,0,0,0-1.5-2.87C67,31.1,67,29.73,67.05,28.27c0-.36,0-.71,0-1.07l-.09-2c-.12-2.72-.25-5.8-.5-8.75A20.19,20.19,0,0,0,66,13.79l-.15-.66-.19-.9.62.67c7.19,7.85,10.51,16.49,10.16,26.4Zm-9.88-25.7A18.74,18.74,0,0,1,67,16.4c.25,3,.38,6,.5,8.77l.09,2c0,.37,0,.74,0,1.1,0,1.45,0,2.6,1.17,3.68A7,7,0,0,1,70.35,35a14.31,14.31,0,0,0,.54,1.45,3.63,3.63,0,0,0,.48.85c1.26.51,2.56,1,3.93,1.42l.64.22C76.2,29.61,73.12,21.42,66.54,13.94Z"/><path class="cls-1" d="M21,11.06l-.38,0a39.51,39.51,0,0,1-4.21-.8l-1.6-.35L14,9.72l.52-.61C18.05,5,28.72.54,34.92.54a10.35,10.35,0,0,1,1.23.07L37,.7,35.51,2.62c-1.19,1.56-2.31,3-3.5,4.51a1.17,1.17,0,0,1-.94.33c-.19,0-.39,0-.57,0h-.1a8,8,0,0,0-7,2.74A3.6,3.6,0,0,1,21,11.06ZM15.82,9.13l.79.18a39.08,39.08,0,0,0,4.11.78,2.74,2.74,0,0,0,2-.58,8.89,8.89,0,0,1,7.75-3h.1l.49,0a.8.8,0,0,0,.26,0C32.46,5.07,33.58,3.6,34.76,2l.42-.55C29.49,1.36,19.72,5.32,15.82,9.13Z"/><path class="cls-1" d="M21,11.31l-.41,0a39.9,39.9,0,0,1-4.23-.8l-.21,0-1.38-.3-1.2-.25.8-.93C17.9,4.82,28.67.29,34.92.29a10.49,10.49,0,0,1,1.26.07L37.43.5,35.71,2.77c-1.19,1.57-2.31,3-3.5,4.51a1.39,1.39,0,0,1-1.13.42c-.2,0-.41,0-.59,0h-.1a7.79,7.79,0,0,0-6.76,2.66A3.81,3.81,0,0,1,21,11.31Zm-6.5-1.75.37.08,1.39.31.21,0a39.46,39.46,0,0,0,4.18.79l.35,0A3.37,3.37,0,0,0,23.26,10a8.25,8.25,0,0,1,7.18-2.82h.1c.17,0,.36,0,.54,0A1,1,0,0,0,31.82,7C33,5.5,34.12,4,35.31,2.47L36.5.9l-.39,0a10.14,10.14,0,0,0-1.2-.07c-6.14,0-16.71,4.44-20.19,8.48Zm6.52.8-.31,0a39,39,0,0,1-4.09-.78l-1.28-.29L15.64,9c4-3.95,13.92-7.83,19.54-7.71h.49l-.78,1c-1.16,1.53-2.25,3-3.36,4.35l-.1.07a1,1,0,0,1-.35,0c-.17,0-.35,0-.51,0h-.1a8.68,8.68,0,0,0-7.54,3A2.9,2.9,0,0,1,21,10.36ZM16.33,9l.33.08a38.8,38.8,0,0,0,4.08.78,2.5,2.5,0,0,0,1.81-.5,9.12,9.12,0,0,1,8-3.13h.1a4.79,4.79,0,0,0,.59,0c1.08-1.36,2.16-2.77,3.3-4.27l.18-.24C29.24,1.83,20.36,5.34,16.33,9Z"/><path class="cls-1" d="M39,77.25c-6.71,0-13.24-1.56-17.91-4.29L20,72.29l3.54-.57c2.71-.44,5.28-.86,7.88-1.22h.14a2.49,2.49,0,0,1,1.55.83,8.48,8.48,0,0,0,5.77,2.54A7.61,7.61,0,0,0,43,72.58a2.85,2.85,0,0,1,2.4.1A27.85,27.85,0,0,1,48,74.14l1.15.68.85.49-.91.36A28.63,28.63,0,0,1,39,77.25ZM22.78,72.79A36.86,36.86,0,0,0,39,76.3a29.7,29.7,0,0,0,8.82-1.18L47.54,75A27.17,27.17,0,0,0,45,73.53a2.75,2.75,0,0,0-1.07-.24.78.78,0,0,0-.41.08,8.54,8.54,0,0,1-4.66,1.44A9.41,9.41,0,0,1,32.41,72a1.86,1.86,0,0,0-.9-.57c-2.6.35-5.15.77-7.86,1.21Z"/><path class="cls-1" d="M39,77.5c-6.75,0-13.33-1.58-18-4.33l-1.75-1,4.23-.68c2.58-.42,5.24-.86,7.89-1.22h.15a2.71,2.71,0,0,1,1.73.9,8.23,8.23,0,0,0,5.6,2.47,7.37,7.37,0,0,0,4-1.25,3.1,3.1,0,0,1,2.64.08,28,28,0,0,1,2.68,1.48l.19.12.95.56,1.3.75-1.4.55A28.88,28.88,0,0,1,39,77.5ZM20.68,72.43l.54.32C25.86,75.45,32.34,77,39,77a28.38,28.38,0,0,0,10-1.56l.43-.17-.4-.23-1-.56-.19-.12a27.67,27.67,0,0,0-2.63-1.45,2.64,2.64,0,0,0-2.15-.12,7.86,7.86,0,0,1-4.28,1.33,8.73,8.73,0,0,1-5.95-2.61,2.31,2.31,0,0,0-1.38-.76H31.4c-2.62.36-5.28.79-7.86,1.22ZM39,76.55A36.89,36.89,0,0,1,22.67,73L22,72.67l1.63-.26c2.58-.42,5.24-.86,7.87-1.21h0a2,2,0,0,1,1.1.64,9.17,9.17,0,0,0,6.26,2.73,8.31,8.31,0,0,0,4.52-1.4,1,1,0,0,1,.54-.12,3,3,0,0,1,1.18.26,27.15,27.15,0,0,1,2.59,1.43l.76.45-.53.17A29.76,29.76,0,0,1,39,76.55ZM23.6,72.92A37,37,0,0,0,39,76.05a30.27,30.27,0,0,0,8.2-1,25.1,25.1,0,0,0-2.34-1.29,2.51,2.51,0,0,0-1-.22.62.62,0,0,0-.28,0,8.79,8.79,0,0,1-4.79,1.48,9.66,9.66,0,0,1-6.6-2.87,2,2,0,0,0-.73-.51c-2.58.36-5.24.79-7.81,1.21Z"/><path class="cls-1" d="M75.28,51.44l-6-8.91.49-1.07.41.15,1.42.51c1.4.5,2.85,1,4.24,1.62a2.05,2.05,0,0,1,.86,1.92c-.2,1.09-.49,2.18-.8,3.33-.12.46-.25.93-.37,1.42ZM70.6,42.77l4.29,6.39.11-.41c.3-1.13.59-2.2.78-3.25a1.36,1.36,0,0,0-.31-.89C74.12,44,72.68,43.52,71.3,43Z"/><path class="cls-1" d="M75.38,52,69,42.56l.64-1.4.63.23,1.27.46.15.05c1.4.5,2.85,1,4.25,1.63a2.27,2.27,0,0,1,1,2.2c-.2,1.1-.49,2.19-.8,3.34-.13.47-.25.94-.38,1.43Zm-5.8-9.54,5.59,8.33.12-.49c.13-.49.25-1,.38-1.42.31-1.15.6-2.23.79-3.31A1.82,1.82,0,0,0,75.76,44c-1.38-.6-2.83-1.11-4.22-1.61l-.15-.05-1.27-.46-.19-.07ZM75,49.76l-5-7.48,1.42.51c1.39.5,2.82,1,4.18,1.59A1.49,1.49,0,0,1,76,45.55c-.19,1.06-.48,2.13-.78,3.26Zm-3.76-6.5,3.56,5.3c.29-1.08.56-2.1.74-3.11a1.27,1.27,0,0,0-.22-.65C74,44.26,72.61,43.75,71.23,43.26Z"/><circle class="cls-1" cx="39.2" cy="66.65" r="4.74"/><circle class="cls-1" cx="29.73" cy="14.53" r="4.74"/><circle class="cls-1" cx="62.9" cy="38.22" r="4.74"/></g></g></svg>