<svg xmlns="http://www.w3.org/2000/svg" viewBox="0 0 1113.34 194.8"><defs><style>.cls-1{fill:#387338;}.cls-2{font-size:16.37px;fill:#fff;font-family:MyriadPro-Bold, Myriad Pro;font-weight:700;}.cls-3{letter-spacing:-0.01em;}.cls-4{letter-spacing:-0.04em;}.cls-5{letter-spacing:-0.03em;}.cls-6{letter-spacing:-0.08em;}.cls-7{letter-spacing:0em;}.cls-8{letter-spacing:0.01em;}.cls-9{letter-spacing:-0.03em;}.cls-10{fill:none;stroke:#68301a;stroke-miterlimit:10;}.cls-11{letter-spacing:-0.03em;}.cls-12{letter-spacing:0.01em;}.cls-13{fill:#68301a;}</style></defs><title>cocau</title><g id="Layer_2" data-name="Layer 2"><g id="Layer_1-2" data-name="Layer 1"><rect class="cls-1" x="237.98" y="81.46" width="135.29" height="32.45" rx="4.38" ry="4.38"/><text class="cls-2" transform="translate(244.45 104.32)">BỘ PHẬN DỰ ÁN</text><rect class="cls-1" x="894.12" y="81.46" width="153.51" height="32.45" rx="4.38" ry="4.38"/><text class="cls-2" transform="translate(905.34 103.03)">PHÒNG <tspan class="cls-3" x="58.29" y="0">K</tspan><tspan x="68.1" y="0">Ỹ</tspan><tspan class="cls-4" x="77.97" y="0"> </tspan><tspan x="80.64" y="0">TH</tspan><tspan class="cls-5" x="100.89" y="0">U</tspan><tspan class="cls-6" x="111.56" y="0">Ậ</tspan><tspan x="120.94" y="0">T</tspan></text><rect class="cls-1" x="980.54" y="147.06" width="132.8" height="47.74" rx="4.38" ry="4.38"/><text class="cls-2" transform="translate(997.27 166.34)"><tspan class="cls-7">B</tspan><tspan x="9.82" y="0">AN</tspan><tspan class="cls-4" x="31.86" y="0"> </tspan><tspan x="34.52" y="0">THI</tspan><tspan class="cls-8" x="59.44" y="0">Ế</tspan><tspan x="68.26" y="0">T KẾ </tspan><tspan x="8.38" y="19.64">PHẦN MỀM</tspan></text><rect class="cls-1" x="0.58" y="81.46" width="202.48" height="32.45" rx="4.38" ry="4.38"/><text class="cls-2" transform="translate(7.62 105)">XƯỞNG ĐIỆN<tspan class="cls-4" x="95.68" y="0"> </tspan><tspan x="98.35" y="0">TỬ &amp; </tspan><tspan class="cls-9" x="136.95" y="0">C</tspan><tspan x="146.2" y="0">Ơ KHÍ</tspan></text><line class="cls-10" x1="101.24" y1="65.41" x2="971.47" y2="65.41"/><line class="cls-10" x1="305.62" y1="65.19" x2="305.62" y2="79.47"/><line class="cls-10" x1="101.53" y1="65.19" x2="101.53" y2="79.47"/><line class="cls-10" x1="469.21" y1="65.19" x2="469.21" y2="79.47"/><line class="cls-10" x1="632.8" y1="65.19" x2="632.8" y2="79.47"/><line class="cls-10" x1="796.38" y1="65.19" x2="796.38" y2="79.47"/><line class="cls-10" x1="884.33" y1="130.79" x2="884.33" y2="142.36"/><line class="cls-10" x1="1046.94" y1="130.79" x2="1046.94" y2="142.36"/><line class="cls-10" x1="970.88" y1="65.19" x2="970.88" y2="79.47"/><rect class="cls-1" x="402.81" y="81.46" width="132.8" height="32.45" rx="4.38" ry="4.38"/><text class="cls-2" transform="translate(414.22 104.32)">PHÒNG HC -<tspan class="cls-4" x="87.89" y="0"> </tspan><tspan class="cls-11" x="90.56" y="0">T</tspan><tspan x="99.05" y="0">C</tspan></text><rect class="cls-1" x="565.15" y="81.46" width="135.29" height="32.45" rx="4.38" ry="4.38"/><text class="cls-2" transform="translate(594.3 104.32)">PHÒNG <tspan class="cls-12" x="58.29" y="0">K</tspan><tspan x="68.44" y="0">T</tspan></text><rect class="cls-1" x="728.74" y="81.46" width="135.29" height="32.45" rx="4.38" ry="4.38"/><text class="cls-2" transform="translate(758.5 104.32)">PHÒNG HD</text><line class="cls-10" x1="551.16" y1="20.75" x2="551.16" y2="62.06"/><line class="cls-10" x1="970.88" y1="113.91" x2="970.88" y2="128.45"/><rect class="cls-1" x="816.69" y="147.06" width="135.29" height="47.35" rx="4.38" ry="4.38"/><text class="cls-2" transform="translate(834.67 166.34)"><tspan class="cls-7">B</tspan><tspan x="9.82" y="0">AN</tspan><tspan class="cls-4" x="31.86" y="0"> </tspan><tspan x="34.52" y="0">THI</tspan><tspan class="cls-8" x="59.44" y="0">Ế</tspan><tspan x="68.26" y="0">T KẾ </tspan><tspan x="4.54" y="19.64">PHẦN CỨNG</tspan></text><rect class="cls-1" x="487.52" width="128.2" height="32.45" rx="4.38" ry="4.38"/><text class="cls-2" transform="translate(496.02 21.3)"><tspan class="cls-7">B</tspan><tspan x="9.82" y="0">AN GIÁM ĐỐC</tspan></text><line class="cls-10" x1="883.74" y1="130.47" x2="1047.54" y2="130.47"/><polygon class="cls-13" points="101.53 81.46 104.89 75.64 98.17 75.64 101.53 81.46"/><polygon class="cls-13" points="305.48 81.46 308.83 75.64 302.12 75.64 305.48 81.46"/><polygon class="cls-13" points="469.21 81.46 472.57 75.64 465.85 75.64 469.21 81.46"/><polygon class="cls-13" points="551.16 65.19 554.52 59.37 547.81 59.37 551.16 65.19"/><polygon class="cls-13" points="632.79 81.46 636.15 75.64 629.44 75.64 632.79 81.46"/><polygon class="cls-13" points="796.38 81.46 799.74 75.64 793.02 75.64 796.38 81.46"/><polygon class="cls-13" points="970.88 81.46 974.24 75.64 967.52 75.64 970.88 81.46"/><polygon class="cls-13" points="970.88 130.15 974.24 124.34 967.52 124.34 970.88 130.15"/><polygon class="cls-13" points="884.33 147.06 887.69 141.25 880.97 141.25 884.33 147.06"/><polygon class="cls-13" points="1046.94 147.06 1050.3 141.25 1043.58 141.25 1046.94 147.06"/></g></g></svg>