<svg xmlns="http://www.w3.org/2000/svg" viewBox="0 0 60.89 77.5"><defs><style>.cls-1{fill:#fff;}</style></defs><title>cong_nghe_moi_truong</title><g id="Layer_2" data-name="Layer 2"><g id="Layer_1-2" data-name="Layer 1"><path class="cls-1" d="M30.37,66.8H22.85a5.69,5.69,0,0,1-1.17-.12,2.27,2.27,0,0,1-1.74-1.9,11.58,11.58,0,0,0-4.66-8.19A39.14,39.14,0,0,1,3.67,43.8,27.58,27.58,0,0,1,.44,27.25,29.83,29.83,0,0,1,8.85,9.47,29.34,29.34,0,0,1,26.57.52,29.44,29.44,0,0,1,50.73,8.05a29,29,0,0,1,9.75,18.67,27.2,27.2,0,0,1,.14,4c0,.36,0,.73,0,1.12,0,.86-.16,1.25-1.1,1.25h-.33c-.55,0-1.39,0-1.94,0a1.45,1.45,0,0,1-1.1-.29,1.24,1.24,0,0,1-.23-1,21,21,0,0,0-.31-5.71A24.9,24.9,0,0,0,43.33,8.48a25.09,25.09,0,0,0-30,3.18A24.85,24.85,0,0,0,5,29.41,23.49,23.49,0,0,0,9.86,44.73a34.22,34.22,0,0,0,7.84,7.67,16.64,16.64,0,0,1,6.44,9.29c.09.32.14.33.4.33,3.93,0,7.8,0,11.68,0h0c.27,0,.3,0,.37-.29a18.1,18.1,0,0,1,2.45-5.32c.52-.8,1-1.62,1.52-2.43.59-1,1.2-2,1.85-2.93a36.9,36.9,0,0,1,3.37-4.24,34.73,34.73,0,0,0-3.88,2.82c-1.41,1.19-2.75,2.41-4.17,3.71L36,54.92l-.51.46-.17-.67c-.08-.32-.17-.64-.26-1-.19-.72-.39-1.45-.54-2.21a13.7,13.7,0,0,1,.36-7.29,11.6,11.6,0,0,1,6.41-6.8A25,25,0,0,1,50,35.26c1.48-.13,3-.17,4.45-.2l1.64,0h.11l.5,0,.34,0,.39,0v1.48c0,.76,0,1.51,0,2.26a31.4,31.4,0,0,1-2,11.36,12.35,12.35,0,0,1-6,6.94,11.75,11.75,0,0,1-5.26,1.17H44a.78.78,0,0,0-.73.35,12.05,12.05,0,0,0-2.45,6,2.2,2.2,0,0,1-1.9,2.06,5.53,5.53,0,0,1-1,.1Zm.42-65.72a33,33,0,0,0-4.12.26A28.53,28.53,0,0,0,9.45,10,29,29,0,0,0,1.26,27.34,26.76,26.76,0,0,0,4.4,43.4,38.33,38.33,0,0,0,15.76,55.92a12.37,12.37,0,0,1,5,8.74,1.44,1.44,0,0,0,1.1,1.2,4.78,4.78,0,0,0,1,.1h15a4.72,4.72,0,0,0,.88-.08A1.39,1.39,0,0,0,40,64.55a12.87,12.87,0,0,1,2.61-6.4A1.59,1.59,0,0,1,44,57.46h.24a10.93,10.93,0,0,0,4.89-1.08,11.56,11.56,0,0,0,5.59-6.51A30.61,30.61,0,0,0,56.61,38.8c0-.74,0-1.48,0-2.24v-.7l-.4,0-1.73,0c-1.45,0-2.94.07-4.4.2a24.2,24.2,0,0,0-8.43,2.12,10.81,10.81,0,0,0-6,6.32,12.89,12.89,0,0,0-.33,6.85c.14.72.34,1.45.53,2.15l.08.31,1.24-1.13c1.43-1.3,2.77-2.53,4.19-3.73A37.18,37.18,0,0,1,48,44.57l2.55-1.35-2.06,2a40.31,40.31,0,0,0-5.35,6.26c-.64.94-1.24,1.94-1.83,2.9s-1,1.65-1.54,2.46a17.31,17.31,0,0,0-2.35,5.08,1.07,1.07,0,0,1-1.16.91h0c-3.94,0-7.79,0-11.68,0h0a1.11,1.11,0,0,1-1.22-.92,15.84,15.84,0,0,0-6.12-8.84,35.06,35.06,0,0,1-8-7.85,24.3,24.3,0,0,1-5-15.85A25.65,25.65,0,0,1,12.77,11a25.93,25.93,0,0,1,31-3.28A25.7,25.7,0,0,1,56.42,25.94a21.71,21.71,0,0,1,.32,5.91,1,1,0,0,0,0,.38h.5c.55,0,1.37,0,1.93,0h.58a2.65,2.65,0,0,0,0-.41c0-.4,0-.77,0-1.13a26.57,26.57,0,0,0-.13-3.87A28.2,28.2,0,0,0,50.18,8.67,28.44,28.44,0,0,0,30.79,1.08Z"/><path class="cls-1" d="M30.37,67H22.85a6,6,0,0,1-1.23-.13,2.53,2.53,0,0,1-1.94-2.1,11.34,11.34,0,0,0-4.56-8A39.39,39.39,0,0,1,3.45,43.92,27.83,27.83,0,0,1,.19,27.22,30.07,30.07,0,0,1,8.67,9.29a29.58,29.58,0,0,1,17.87-9A29.64,29.64,0,0,1,50.9,7.87a29.24,29.24,0,0,1,9.84,18.83,27.39,27.39,0,0,1,.14,4c0,.36,0,.73,0,1.12,0,.95-.23,1.49-1.35,1.49h-.33c-.55,0-1.39,0-1.95,0A1.64,1.64,0,0,1,56,32.95a1.49,1.49,0,0,1-.29-1.16,20.75,20.75,0,0,0-.31-5.65A24.66,24.66,0,0,0,43.21,8.7a24.85,24.85,0,0,0-29.71,3.15A24.61,24.61,0,0,0,5.22,29.42a23.25,23.25,0,0,0,4.84,15.16,34,34,0,0,0,7.78,7.61,16.88,16.88,0,0,1,6.54,9.42.74.74,0,0,0,.06.16s.06,0,.1,0c4,0,7.78,0,11.68,0h.1l0-.1a18.34,18.34,0,0,1,2.49-5.4c.52-.79,1-1.61,1.5-2.4.6-1,1.21-2,1.87-3A34.74,34.74,0,0,1,44.37,48q-1.2.85-2.29,1.76c-1.42,1.2-2.75,2.41-4.16,3.7l-1.75,1.59-.82.74-.27-1.07-.22-.84,0-.12c-.18-.68-.39-1.45-.54-2.22a13.93,13.93,0,0,1,.37-7.42,11.83,11.83,0,0,1,6.54-6.94A25.29,25.29,0,0,1,50,35c1.49-.13,3-.17,4.46-.2h.28l1.36,0h.12l.52,0,1,.06v1.71c0,.77,0,1.52,0,2.26a31.64,31.64,0,0,1-2,11.45,12.59,12.59,0,0,1-6.12,7.07,12,12,0,0,1-5.37,1.2H44a.54.54,0,0,0-.53.25,11.8,11.8,0,0,0-2.4,5.87A2.44,2.44,0,0,1,39,66.94a5.87,5.87,0,0,1-1.08.1ZM30.78.5A33.43,33.43,0,0,0,26.6.77,29.09,29.09,0,0,0,9,9.64,29.59,29.59,0,0,0,.68,27.27,27.34,27.34,0,0,0,3.89,43.68a38.92,38.92,0,0,0,11.53,12.7,11.82,11.82,0,0,1,4.76,8.36,2,2,0,0,0,1.55,1.69,5.43,5.43,0,0,0,1.12.12h15a5.31,5.31,0,0,0,1-.09,1.94,1.94,0,0,0,1.69-1.84,12.29,12.29,0,0,1,2.49-6.11A1,1,0,0,1,44,58h.2a11.49,11.49,0,0,0,5.14-1.14,12.11,12.11,0,0,0,5.87-6.81,31.17,31.17,0,0,0,2-11.28c0-.74,0-1.49,0-2.24V35.32l-.51,0-.48,0H56.1l-1.36,0h-.27c-1.46,0-3,.08-4.44.2a24.81,24.81,0,0,0-8.64,2.18,11.36,11.36,0,0,0-6.28,6.65,13.45,13.45,0,0,0-.35,7.16c.15.75.35,1.52.54,2.19l0,.12c.08.29.15.57.22.85l.07.27.21-.18,1.75-1.59c1.42-1.29,2.75-2.51,4.18-3.72a35.07,35.07,0,0,1,3.91-2.84l1.57-1L46,47a36.39,36.39,0,0,0-3.35,4.21c-.65,1-1.26,2-1.84,2.92s-1,1.65-1.53,2.44a17.86,17.86,0,0,0-2.42,5.25c-.1.38-.22.48-.61.48-3.91,0-7.73,0-11.69,0-.36,0-.51-.08-.64-.5a16.4,16.4,0,0,0-6.35-9.16,34.45,34.45,0,0,1-7.9-7.72A23.74,23.74,0,0,1,4.72,29.39a25.09,25.09,0,0,1,8.44-17.92,25.34,25.34,0,0,1,30.3-3.21A25.15,25.15,0,0,1,55.85,26a21.25,21.25,0,0,1,.31,5.77c0,.42,0,.64.16.79s.53.21.92.21c.56,0,1.39,0,1.94,0h.33c.74,0,.85-.21.85-1,0-.4,0-.77,0-1.13a26.92,26.92,0,0,0-.14-3.95A28.76,28.76,0,0,0,50.57,8.24,29,29,0,0,0,30.78.5Zm-.41,65.72H22.85a5,5,0,0,1-1-.11,1.69,1.69,0,0,1-1.29-1.41,12.14,12.14,0,0,0-4.89-8.58A38.56,38.56,0,0,1,4.18,43.52,27,27,0,0,1,1,27.31,29.25,29.25,0,0,1,9.27,9.87,28.78,28.78,0,0,1,26.64,1.1a28.86,28.86,0,0,1,23.7,7.39,28.43,28.43,0,0,1,9.56,18.3,26.74,26.74,0,0,1,.14,3.9c0,.36,0,.73,0,1.13a3,3,0,0,1,0,.45l0,.19-.19,0h-.61c-.55,0-1.38,0-1.93,0h-.53l-.13,0-.06-.12a1,1,0,0,1,0-.5A21.46,21.46,0,0,0,56.17,26,25.46,25.46,0,0,0,43.63,8a25.68,25.68,0,0,0-30.7,3.25A25.41,25.41,0,0,0,4.39,29.38a24,24,0,0,0,5,15.69,34.8,34.8,0,0,0,8,7.8,16.09,16.09,0,0,1,6.22,9,.87.87,0,0,0,1,.74c3.9,0,7.72,0,11.68,0a.82.82,0,0,0,.92-.72,17.61,17.61,0,0,1,2.38-5.15c.51-.77,1-1.58,1.47-2.35l.06-.1c.6-1,1.2-2,1.83-2.9a40.58,40.58,0,0,1,5.38-6.3l.82-.8-1,.54a37,37,0,0,0-6.55,4.38c-1.39,1.17-2.71,2.38-4.11,3.65L35.81,54.3l-.19-.71c-.18-.67-.38-1.43-.53-2.17a13.14,13.14,0,0,1,.34-7A11,11,0,0,1,41.54,38a24.45,24.45,0,0,1,8.52-2.14c1.46-.13,3-.17,4.4-.2l1.74,0h0l.43,0,.23,0v.93c0,.76,0,1.5,0,2.24A30.87,30.87,0,0,1,54.92,50a11.8,11.8,0,0,1-5.71,6.64,11.18,11.18,0,0,1-5,1.11H44a1.34,1.34,0,0,0-1.16.59,12.62,12.62,0,0,0-2.56,6.28,1.64,1.64,0,0,1-1.42,1.55,5.06,5.06,0,0,1-.92.09Zm.42-64.89a32.86,32.86,0,0,0-4.08.26A28.29,28.29,0,0,0,9.63,10.22,28.77,28.77,0,0,0,1.51,27.37,26.51,26.51,0,0,0,4.62,43.28,38.08,38.08,0,0,0,15.91,55.72,12.61,12.61,0,0,1,21,64.63a1.18,1.18,0,0,0,.91,1,4.59,4.59,0,0,0,.94.1h15a4.49,4.49,0,0,0,.83-.08,1.14,1.14,0,0,0,1-1.1A13.12,13.12,0,0,1,42.4,58,1.85,1.85,0,0,1,44,57.21h.24A10.68,10.68,0,0,0,49,56.15a11.32,11.32,0,0,0,5.47-6.37,30.37,30.37,0,0,0,1.91-11c0-.73,0-1.47,0-2.22v-.48h-.15l-1.72,0c-1.45,0-2.94.08-4.39.2a24,24,0,0,0-8.35,2.1,10.57,10.57,0,0,0-5.86,6.17,12.66,12.66,0,0,0-.32,6.73c.14.69.33,1.41.5,2l1-.93c1.4-1.28,2.72-2.49,4.12-3.67a37.46,37.46,0,0,1,6.64-4.44l4.08-2.16-3.3,3.22a40.15,40.15,0,0,0-5.32,6.22c-.63.93-1.22,1.91-1.8,2.85l-.08.13c-.48.78-1,1.59-1.48,2.37a17.07,17.07,0,0,0-2.31,5,1.31,1.31,0,0,1-1.4,1.1c-4,0-7.77,0-11.68,0A1.36,1.36,0,0,1,23.1,62a15.6,15.6,0,0,0-6-8.71A35.29,35.29,0,0,1,9,45.37a24.54,24.54,0,0,1-5.09-16A25.89,25.89,0,0,1,12.6,10.86,26.18,26.18,0,0,1,43.88,7.55,25.94,25.94,0,0,1,56.66,25.89a22,22,0,0,1,.33,6S57,32,57,32h.27c.55,0,1.37,0,1.92,0h.35s0-.1,0-.17c0-.4,0-.78,0-1.14a26.27,26.27,0,0,0-.13-3.83,28,28,0,0,0-9.4-18A28.2,28.2,0,0,0,30.79,1.33Z"/><path class="cls-1" d="M28.35,53.55,26.78,53l-1.2-.43a22.63,22.63,0,0,1-9.15-5.93,15.22,15.22,0,0,1-4-10,26.5,26.5,0,0,1,2.9-12.13,64.24,64.24,0,0,1,7.39-11.82c.09-.12.19-.23.32-.37l.4-.43,1.44,1c.84.6,1.68,1.19,2.5,1.81a51.13,51.13,0,0,1,9.38,8.81,23.07,23.07,0,0,1,5.08,10.2l0,.1c0,.08,0,.16,0,.24a1.22,1.22,0,0,1,0,.22l0,.4-.26.1c-6.33,2.33-9.38,6.44-9.33,12.58l0,2.13-.82-2a116.47,116.47,0,0,1-6-20.09,107.54,107.54,0,0,0,.48,11,106.15,106.15,0,0,0,2.17,14.37ZM23.56,13l-.17.2a63.5,63.5,0,0,0-7.3,11.66,25.71,25.71,0,0,0-2.83,11.76,14.41,14.41,0,0,0,3.79,9.49,21.82,21.82,0,0,0,8.82,5.7l1.18.42.15.05a108.12,108.12,0,0,1-2-13.74A97.35,97.35,0,0,1,24.82,24L25,20.91,25.64,24a134.75,134.75,0,0,0,5.91,21.44c.55-5.38,3.68-9.1,9.51-11.32,0,0,0-.08,0-.12l0-.11A22.26,22.26,0,0,0,36.11,24a50.32,50.32,0,0,0-9.23-8.67c-.81-.61-1.64-1.2-2.48-1.79Z"/><path class="cls-1" d="M28.69,53.93l-2.08-.74-1.11-.4a22.88,22.88,0,0,1-9.24-6,15.47,15.47,0,0,1-4.07-10.19,26.75,26.75,0,0,1,2.93-12.25A64.48,64.48,0,0,1,22.53,12.5a5,5,0,0,1,.33-.38l.54-.59L25,12.68c.82.58,1.67,1.19,2.5,1.81A51.37,51.37,0,0,1,37,23.35a23.29,23.29,0,0,1,5.13,10.31l0,.1c0,.08,0,.16,0,.25a1.35,1.35,0,0,1,0,.27l0,.56-.42.15c-6.22,2.29-9.21,6.32-9.16,12.34l0,3.41L31.26,47.6a109.24,109.24,0,0,1-5.48-17.93c0,2.66.19,5.54.48,8.75a105.78,105.78,0,0,0,2.16,14.33ZM23.48,12.19l-.25.27c-.12.13-.22.24-.3.35a64,64,0,0,0-7.36,11.77,26.27,26.27,0,0,0-2.88,12,15,15,0,0,0,3.94,9.87,22.38,22.38,0,0,0,9,5.86l1.1.4,1.23.44-.07-.29a106.48,106.48,0,0,1-2.17-14.4,107.88,107.88,0,0,1-.48-11.05l0-2.16.46,2.11a115,115,0,0,0,5.95,20l.33.79v-.85C32,41.09,35.1,36.89,41.54,34.53l.1,0v-.23a1,1,0,0,0,0-.18c0-.07,0-.15,0-.22l0-.11a22.83,22.83,0,0,0-5-10.09,50.88,50.88,0,0,0-9.33-8.77c-.82-.62-1.67-1.22-2.49-1.8Zm4.07,40.45-.57-.2L25.79,52a22.05,22.05,0,0,1-8.92-5.77A14.66,14.66,0,0,1,13,36.59a26,26,0,0,1,2.85-11.87A63.74,63.74,0,0,1,23.19,13l.18-.21.15-.17,1.14.81c.8.57,1.59,1.13,2.37,1.71a50.56,50.56,0,0,1,9.27,8.71,22.48,22.48,0,0,1,5,9.94l0,.11s0,.09,0,.14l0,.19-.18.07c-5.75,2.19-8.81,5.83-9.35,11.12l-.11,1-.38-1A134.33,134.33,0,0,1,25.4,24l-.25-1.22L25.07,24a97,97,0,0,0,.36,14.45,107.59,107.59,0,0,0,2,13.71ZM23.6,13.3h0a63.25,63.25,0,0,0-7.27,11.62,25.47,25.47,0,0,0-2.8,11.65,14.17,14.17,0,0,0,3.72,9.33A21.57,21.57,0,0,0,26,51.55l.9.33a108.9,108.9,0,0,1-1.93-13.34A97.71,97.71,0,0,1,24.57,24l.29-5,1,4.89A138.07,138.07,0,0,0,31.43,44.4c.82-4.91,3.88-8.34,9.35-10.47v0a22,22,0,0,0-4.86-9.73,50.1,50.1,0,0,0-9.18-8.62c-.77-.58-1.56-1.14-2.36-1.71Z"/><path class="cls-1" d="M40.1,69.79a6.5,6.5,0,0,1-2,4.52c-4.15,4.29-12.4,3.82-16-.92a5.4,5.4,0,0,1-1.23-3.6Z"/><path class="cls-1" d="M30.62,77.5l-.76,0a10.67,10.67,0,0,1-8-3.94,5.64,5.64,0,0,1-1.28-3.76v-.24H40.36v.25a6.74,6.74,0,0,1-2.08,4.69A10.56,10.56,0,0,1,30.62,77.5ZM21.1,70a5.15,5.15,0,0,0,1.19,3.2A10.17,10.17,0,0,0,29.89,77a10.24,10.24,0,0,0,8-2.85A6.29,6.29,0,0,0,39.84,70Z"/><path class="cls-1" d="M19.72,54.2s7.64,1.88,10.9,5.51c0,0-2.38-6-3.63-19.3,0,0,3.26,12,8.52,17.17,0,0,5.16-8.3,10.29-10.79,0,0-8.57,11.27-9.55,16l-11.89-.37S22.1,57,19.72,54.2Z"/></g></g></svg>