<svg xmlns="http://www.w3.org/2000/svg" viewBox="0 0 22 16.27"><defs><style>.cls-1{fill:#387236;}</style></defs><title>danh ba</title><g id="Layer_2" data-name="Layer 2"><g id="Layer_1-2" data-name="Layer 1"><polygon class="cls-1" points="2.07 1.9 0.24 1.9 0.24 3.34 2.07 3.34 2.07 7.36 0 7.36 0 8.8 2.07 8.8 2.07 12.82 0 12.82 0 14.26 2.07 14.26 2.07 16.27 5.69 16.27 5.69 0 2.07 0 2.07 1.9"/><path class="cls-1" d="M7.25,16.27H22V0H7.25ZM14.62,3.68A2.21,2.21,0,0,1,16.91,5.8a2.21,2.21,0,0,1-2.28,2.12A2.21,2.21,0,0,1,12.34,5.8a2.2,2.2,0,0,1,2.28-2.12m-4.14,8.8a4,4,0,0,1,4.14-3.84,4,4,0,0,1,4.14,3.84Z"/></g></g></svg>