<svg xmlns="http://www.w3.org/2000/svg" viewBox="0 0 20 18.36"><defs><style>.cls-1,.cls-2{fill:#68301a;}.cls-1{fill-rule:evenodd;}</style></defs><title>danh van</title><g id="Layer_2" data-name="Layer 2"><g id="Layer_1-2" data-name="Layer 1"><path class="cls-1" d="M18.56,4.55l.81.58a1.6,1.6,0,0,1,.17,2.41l-7,7.19a1.87,1.87,0,0,1-.75.47A1.9,1.9,0,0,1,9.67,15L5.74,11.66a1.5,1.5,0,0,1-.07-2.25l.56-.59a1.89,1.89,0,0,1,2.48-.07l1.72,1.5L15.9,4.71A2,2,0,0,1,18.56,4.55Z"/><path class="cls-2" d="M14.92,15.85a1.45,1.45,0,0,1-1.51,1.37H2.77a1.45,1.45,0,0,1-1.51-1.37V2.51A1.45,1.45,0,0,1,2.77,1.14H13.41a1.45,1.45,0,0,1,1.51,1.37V4.59L16,3.45l.15-.13V2.51A2.65,2.65,0,0,0,13.41,0H2.77A2.65,2.65,0,0,0,0,2.51V15.85a2.65,2.65,0,0,0,2.77,2.51H13.41a2.65,2.65,0,0,0,2.77-2.51V12.32l-1.25,1.3Z"/></g></g></svg>