<svg xmlns="http://www.w3.org/2000/svg" viewBox="0 0 19.2 20"><defs><style>.cls-1{fill:#fff;}</style></defs><title>danh dau_1</title><g id="Layer_2" data-name="Layer 2"><g id="Layer_1-2" data-name="Layer 1"><path class="cls-1" d="M1.84,4.66a1,1,0,0,0-1.19-.5A.84.84,0,0,0,0,5.22L5.29,19.45a1,1,0,0,0,1.19.5.84.84,0,0,0,.61-1.07L4.79,12.67Z"/><path class="cls-1" d="M15.06,4.43a.47.47,0,0,1-.21-.6,17.14,17.14,0,0,1,1.73-3C17.11.1,16,0,15.79,0c-4.91-.23-8,4.46-12.69,4.8L6,12.68c4.7-.34,7.79-5.05,12.71-4.8.24,0,.42-.07.47-.22a.54.54,0,0,0-.26-.52,35.55,35.55,0,0,0-3.87-2.71"/></g></g></svg>