<svg xmlns="http://www.w3.org/2000/svg" viewBox="0 0 20 17.74"><defs><style>.cls-1{fill:#7b8c7a;}</style></defs><title>dinh kem 1</title><g id="Layer_2" data-name="Layer 2"><g id="Layer_1-2" data-name="Layer 1"><path class="cls-1" d="M10.33,17.73l-1.1-1.11,7.71-7.67a4.4,4.4,0,0,0,.31-6.18A4.4,4.4,0,0,0,11.06,3L2.54,11.53a2.72,2.72,0,0,0-.19,3.86,2.71,2.71,0,0,0,3.87-.17l6.9-6.87a1,1,0,1,0-1.47-1.48L5.55,12.93l-1.1-1.11,6.09-6.06a2.71,2.71,0,0,1,3.87-.17,2.72,2.72,0,0,1-.19,3.86l-6.9,6.87a4.4,4.4,0,0,1-6.19.28,4.4,4.4,0,0,1,.31-6.18L10,1.94c2.44-2.42,6.3-2.6,8.5-.38s2,6.08-.43,8.5Z"/></g></g></svg>