<svg xmlns="http://www.w3.org/2000/svg" viewBox="0 0 13.44 13.44"><defs><style>.cls-1{fill:#5b5b5b;}</style></defs><title>dong</title><g id="Layer_2" data-name="Layer 2"><g id="Layer_1-2" data-name="Layer 1"><path class="cls-1" d="M9.42.56l-2.7,2.7L4,.56A1.63,1.63,0,0,0,1.73.4L.4,1.73A1.63,1.63,0,0,0,.56,4l2.7,2.7L.56,9.42A1.63,1.63,0,0,0,.4,11.71L1.73,13A1.63,1.63,0,0,0,4,12.88l2.7-2.7,2.7,2.7a1.63,1.63,0,0,0,2.29.16L13,11.71a1.63,1.63,0,0,0-.16-2.29l-2.7-2.7L12.89,4A1.63,1.63,0,0,0,13,1.73L11.71.4A1.63,1.63,0,0,0,9.42.56Z"/></g></g></svg>