<svg xmlns="http://www.w3.org/2000/svg" viewBox="0 0 20 20.24"><defs><style>.cls-1{fill:#7b8c7a;fill-rule:evenodd;}</style></defs><title>in ra 1</title><g id="Layer_2" data-name="Layer 2"><g id="Layer_1-2" data-name="Layer 1"><path class="cls-1" d="M18.33,6.67H17.08V.51A.51.51,0,0,0,16.58,0H3.42a.51.51,0,0,0-.51.51V6.67H1.67A1.66,1.66,0,0,0,0,7.95v10C0,19.25.75,20,1.67,20H4.91V17.92h-2c-.14-2.1.21-2.53.8-2.53h12.5c1,0,.81,1.19.84,2.53h-1.9V20h3.15c.92,0,1.67-.75,1.67-2.05v-10A1.66,1.66,0,0,0,18.33,6.67ZM4,14.58a1,1,0,1,1,1-1A1,1,0,0,1,4,14.58ZM15,8.75H5V2.84a.76.76,0,0,1,.76-.76h8.42a.82.82,0,0,1,.82.82Z"/><path class="cls-1" d="M13.69,16.21H6.36a.2.2,0,0,0-.2.2V20a.2.2,0,0,0,.2.2h7.33a.2.2,0,0,0,.2-.2V16.42A.2.2,0,0,0,13.69,16.21Z"/></g></g></svg>