<svg xmlns="http://www.w3.org/2000/svg" viewBox="0 0 20 17.34"><defs><style>.cls-1{fill:#7b8c7a;}</style></defs><title>ky 1</title><g id="Layer_2" data-name="Layer 2"><g id="Layer_1-2" data-name="Layer 1"><path class="cls-1" d="M19.06,3.49c-1-1-2.2-1.22-2.82-.6L7.57,11.56l-.45,3.86L11,15l8.67-8.67a1.4,1.4,0,0,0,.27-1.39,3.29,3.29,0,0,0-.87-1.42m-4.26,2,.82.82L9.44,12.51l-.82-.82ZM8.08,14.46l.22-1.91L10,14.25Zm2.77-.54L10,13.1l6.17-6.17.82.82Z"/><path class="cls-1" d="M14.09,15a1.37,1.37,0,0,1-1.43,1.3H2.61A1.37,1.37,0,0,1,1.18,15V2.37a1.37,1.37,0,0,1,1.43-1.3H12.67a1.37,1.37,0,0,1,1.43,1.3v2l1-1.08.14-.12V2.37A2.5,2.5,0,0,0,12.67,0H2.61A2.5,2.5,0,0,0,0,2.37V15a2.5,2.5,0,0,0,2.61,2.37H12.67A2.5,2.5,0,0,0,15.28,15V11.63l-1.18,1.22Z"/><path class="cls-1" d="M6.29,15.26H2.83a.46.46,0,0,1-.46-.46V13.72a.12.12,0,0,1,.12-.12l4,0a.12.12,0,0,1,.12.14l-.2,1.37A.12.12,0,0,1,6.29,15.26Z"/></g></g></svg>