<svg xmlns="http://www.w3.org/2000/svg" viewBox="0 0 89.78 61.32"><defs><style>.cls-1{fill:#387236;}.cls-2{fill:#68301a;}.cls-3{fill:#6a2e1c;}</style></defs><title>logo trung tam</title><g id="Layer_2" data-name="Layer 2"><g id="Layer_1-2" data-name="Layer 1"><path class="cls-1" d="M24.78,41.5H13.37C20.76,49.68,32.21,54.76,44.54,55V49.57A31,31,0,0,1,24.78,41.5Z"/><path class="cls-1" d="M77.42,41.5H66a31,31,0,0,1-19.8,8.07V55C58.56,54.77,70,49.69,77.42,41.5Z"/><path class="cls-1" d="M63.76,41.5H46.21v6.57A29.53,29.53,0,0,0,63.76,41.5Z"/><path class="cls-1" d="M27,41.5a29.53,29.53,0,0,0,17.52,6.57V41.5Z"/><path class="cls-1" d="M11.48,41.5H3.63C10.8,53,26.39,61.08,44.54,61.32V56.49C31.33,56.25,19.09,50.58,11.48,41.5Z"/><path class="cls-1" d="M87.15,41.5H79.31c-7.62,9.09-19.87,14.77-33.1,15v4.84C64.38,61.09,80,53,87.15,41.5Z"/><polygon class="cls-1" points="6.96 20.2 20.26 20.2 43.34 1.1 6.96 20.2"/><path class="cls-1" d="M22.55,20.2H69L45.91.87ZM48.17,8.94l6.28-.06-5.12,3.64,2,5.95-5-3.74-5,3.74,2-5.95L38.13,8.88l6.28.06,1.88-6Z"/><path class="cls-1" d="M49.63.07,87.06,20.2h.27C80.69,9.16,66.47,1.22,49.63.07Z"/><polygon class="cls-1" points="71.27 20.2 83.93 20.2 48.54 1.17 71.27 20.2"/><path class="cls-1" d="M3.46,20.2h.3L42.24,0C24.93.88,10.24,8.92,3.46,20.2Z"/><rect class="cls-2" x="1.66" y="26.23" width="3.18" height="8.87"/><polygon class="cls-3" points="0.08 30.01 1.66 26.23 0 26.23 0.08 30.01"/><polygon class="cls-3" points="4.87 26.23 6.45 30.01 6.53 26.23 4.87 26.23"/><path class="cls-2" d="M14.46,30.63c0,2.46,1.31,4.46,2.93,4.46l.22,0V26.19l-.22,0C15.77,26.17,14.46,28.17,14.46,30.63Z"/><polygon class="cls-3" points="17.76 26.17 20.45 29.35 20.45 26.17 17.76 26.17"/><polygon class="cls-2" points="20.34 35.09 20.34 32.15 17.64 35.09 20.34 35.09"/><rect class="cls-2" x="7.54" y="26.18" width="2.84" height="9.03"/><polygon class="cls-3" points="13.29 26.2 10.52 26.2 13.29 29.41 13.29 26.2"/><polygon class="cls-2" points="12.23 28.59 10.4 30.57 12.16 32.48 12.23 28.59"/><polygon class="cls-2" points="10.42 35.2 13.39 35.2 13.39 31.22 10.42 35.2"/><polygon class="cls-2" points="26.09 26.23 23.21 26.23 24.13 31.08 23.5 31.08 22.76 27.63 21.46 35.09 24.34 35.09 23.66 31.93 24.29 31.93 24.89 35.1 27.78 35.1 26.09 26.23"/><rect class="cls-2" x="62.92" y="26.16" width="3.21" height="9.01"/><polygon class="cls-2" points="61.32 29.99 62.91 26.16 61.24 26.16 61.32 29.99"/><polygon class="cls-2" points="66.15 26.16 67.74 29.99 67.82 26.16 66.15 26.16"/><path class="cls-2" d="M75.52,30.66c0,2.48,1.43,4.48,3.19,4.48l.24,0V26.2l-.24,0C77,26.18,75.52,28.19,75.52,30.66Z"/><polygon class="cls-2" points="79.11 26.17 82.05 29.38 82.05 26.17 79.11 26.17"/><polygon class="cls-2" points="81.92 35.16 81.92 32.19 78.98 35.16 81.92 35.16"/><rect class="cls-2" x="68.66" y="26.16" width="3" height="9.01"/><polygon class="cls-2" points="74.75 26.17 71.81 26.17 74.75 29.38 74.75 26.17"/><polygon class="cls-2" points="73.63 28.55 71.69 30.53 73.56 32.44 73.63 28.55"/><polygon class="cls-2" points="71.71 35.15 74.85 35.15 74.85 31.18 71.71 35.15"/><rect class="cls-2" x="87.77" y="26.16" width="2" height="9.01"/><polygon class="cls-2" points="85.57 31.18 88.19 31.18 86.96 29.82 85.57 31.18"/><rect class="cls-2" x="82.95" y="26.16" width="3" height="9.01"/><rect class="cls-2" x="53.38" y="26.2" width="3.21" height="9.01"/><polygon class="cls-2" points="51.78 30.03 53.38 26.2 51.71 26.2 51.78 30.03"/><polygon class="cls-2" points="56.61 26.2 58.21 30.03 58.28 26.2 56.61 26.2"/><rect class="cls-2" x="44.71" y="26.15" width="3" height="9.11"/><polygon class="cls-2" points="50.8 26.16 47.87 26.16 50.8 29.41 50.8 26.16"/><polygon class="cls-2" points="49.68 28.57 47.74 30.57 49.61 32.5 49.68 28.57"/><path class="cls-2" d="M36.88,30.67c0,2.42,1.44,4.38,3.25,4.5v-9C38.32,26.28,36.88,28.25,36.88,30.67Z"/><path class="cls-2" d="M40.59,26.17v9c1.75-.2,3.13-2.13,3.13-4.49S42.34,26.37,40.59,26.17Z"/><path class="cls-2" d="M35.42,34.36l.31-.34a2.29,2.29,0,0,0-.26-3.35l-4.73-3.87-.27.29a2.35,2.35,0,0,0,.26,3.45Z"/><path class="cls-2" d="M33.65,28.83,31,26.66a3.82,3.82,0,0,1,4.66.27,3.75,3.75,0,0,1,.82,1.74Z"/><path class="cls-2" d="M32.93,32.72l2.2,1.77a3.64,3.64,0,0,1-4.65,0,3.91,3.91,0,0,1-1-1.72Z"/><path class="cls-2" d="M60.55,33h.79a1.72,1.72,0,0,1,0,.35q0,.15-.12.37a1.83,1.83,0,0,1-.39.65l.52.85h-1l-.14-.25a1.43,1.43,0,0,1-.42.23,1.79,1.79,0,0,1-.5.08,1,1,0,0,1-1-.48,1.4,1.4,0,0,1-.16-.71,1.16,1.16,0,0,1,.21-.62A1.37,1.37,0,0,1,59,32.9a4.08,4.08,0,0,1-.25-.4l-.09-.24a.82.82,0,0,1,0-.23.74.74,0,0,1,.29-.6,1.12,1.12,0,0,1,.73-.23,1.27,1.27,0,0,1,.72.18.66.66,0,0,1,.3.6,1,1,0,0,1-.17.56A1.6,1.6,0,0,1,60,33l.39.63.1-.25A1.9,1.9,0,0,0,60.55,33Zm-.7,1.42-.52-.88-.13.14-.05.06a.89.89,0,0,0-.09.18.7.7,0,0,0,0,.22.45.45,0,0,0,.12.31.37.37,0,0,0,.3.14h.11l.09,0,.11,0Zm-.21-2.61q-.23,0-.23.21a.41.41,0,0,0,.08.23l.12.19a1.23,1.23,0,0,0,.17-.17.39.39,0,0,0,.07-.12l0-.12a.26.26,0,0,0,0-.17A.24.24,0,0,0,59.64,31.78Z"/></g></g></svg>