<svg xmlns="http://www.w3.org/2000/svg" viewBox="0 0 78.54 48.97"><defs><style>.cls-1{fill:#68301a;}.cls-2{fill:#6a2e1c;}.cls-3{fill:#387236;}</style></defs><title>logo</title><g id="Layer_2" data-name="Layer 2"><g id="Layer_1-2" data-name="Layer 1"><rect class="cls-1" x="2.47" y="19.59" width="4.73" height="10.7"/><polygon class="cls-2" points="0.12 24.14 2.46 19.59 0 19.59 0.12 24.14"/><polygon class="cls-2" points="7.23 19.59 9.57 24.14 9.69 19.59 7.23 19.59"/><path class="cls-1" d="M22.43,24.94c0,2.94,1.94,5.33,4.34,5.33l.33,0V19.63l-.33,0C24.37,19.61,22.43,22,22.43,24.94Z"/><polygon class="cls-2" points="27.31 19.6 31.29 23.41 31.29 19.6 27.31 19.6"/><polygon class="cls-1" points="31.12 30.27 31.12 26.75 27.13 30.27 31.12 30.27"/><rect class="cls-1" x="12.35" y="19.72" width="3.77" height="10.7"/><polygon class="cls-2" points="19.99 19.74 16.3 19.74 19.99 23.55 19.99 19.74"/><polygon class="cls-1" points="18.58 22.57 16.15 24.92 18.49 27.18 18.58 22.57"/><polygon class="cls-1" points="16.18 30.39 20.11 30.39 20.11 25.68 16.18 30.39"/><polygon class="cls-1" points="40.74 19.59 36.71 19.59 38 25.44 37.12 25.44 36.09 21.27 34.28 30.27 38.29 30.27 37.34 26.46 38.22 26.46 39.06 30.28 43.09 30.28 40.74 19.59"/><rect class="cls-1" x="45.31" y="19.59" width="3.84" height="10.7"/><path class="cls-2" d="M50.09,19.65v6.19s4.41.4,4.46-2.78C54.61,19,50.09,19.65,50.09,19.65Z"/><rect class="cls-1" x="56.94" y="19.59" width="4.06" height="10.7"/><path class="cls-1" d="M62.41,25.16c1.08,0,4.31-.13,4.35-2.49.06-3.59-4.7-3-4.7-3v5.44l0,5.21h5.21Z"/><path class="cls-1" d="M68.94,24.94c0,2.87,1.93,5.2,4.36,5.34V19.59C70.88,19.73,68.94,22.07,68.94,24.94Z"/><path class="cls-1" d="M74.34,19.6V30.27c2.35-.23,4.2-2.53,4.2-5.33S76.7,19.84,74.34,19.6Z"/><path class="cls-3" d="M22.74,34.72h-9c5.86,5.88,14.93,9.53,24.7,9.69V40.52A26,26,0,0,1,22.74,34.72Z"/><path class="cls-3" d="M64.45,34.72h-9a26,26,0,0,1-15.69,5.8v3.89C49.5,44.26,58.58,40.61,64.45,34.72Z"/><path class="cls-3" d="M53.63,34.72H39.72v4.72A24.86,24.86,0,0,0,53.63,34.72Z"/><path class="cls-3" d="M24.52,34.72A24.86,24.86,0,0,0,38.4,39.44V34.72Z"/><path class="cls-3" d="M12.2,34.72H6C11.67,43,24,48.79,38.4,49V45.49C27.93,45.32,18.23,41.25,12.2,34.72Z"/><path class="cls-3" d="M72.16,34.72H65.95c-6,6.54-15.75,10.61-26.23,10.78V49C54.12,48.8,66.48,43,72.16,34.72Z"/><polygon class="cls-3" points="8.62 14.41 19.16 14.41 37.44 0.79 8.62 14.41"/><path class="cls-3" d="M21,14.41h36.8L39.48.62Zm20.3-8,5,0L42.19,8.92l1.58,4.24-4-2.66-4,2.66,1.58-4.24L33.32,6.33l5,0,1.49-4.27Z"/><path class="cls-3" d="M42.43,0,72.09,14.41h.21C67,6.53,55.77.87,42.43,0Z"/><polygon class="cls-3" points="59.57 14.41 69.6 14.41 41.56 0.83 59.57 14.41"/><path class="cls-3" d="M5.85,14.41h.24L36.57,0C22.86.63,11.23,6.36,5.85,14.41Z"/></g></g></svg>