<svg xmlns="http://www.w3.org/2000/svg" viewBox="0 0 641.08 60"><defs><style>.cls-1{font-size:20px;fill:#40a840;font-family:UTM-HelvetIns, UTM HelvetIns;}.cls-2{fill:#fff;}.cls-3{fill:#68301a;}.cls-4{fill:#387338;}</style></defs><title>logo_mobile1</title><g id="Layer_2" data-name="Layer 2"><g id="Layer_1-2" data-name="Layer 1"><text class="cls-1" transform="translate(93.08 37.62)">CÔNG TY TNHH MỘT THÀNH VIÊN ỨNG DỤNG KỸ THUẬT VÀ SẢN XUẤT</text><ellipse class="cls-2" cx="43.32" cy="30" rx="43.32" ry="30"/><rect class="cls-3" x="6.59" y="25.36" width="4.71" height="10.66"/><polygon class="cls-3" points="4.25 29.89 6.59 25.36 4.13 25.36 4.25 29.89"/><polygon class="cls-3" points="11.33 25.36 13.67 29.89 13.79 25.36 11.33 25.36"/><path class="cls-3" d="M26.48,30.69c0,2.93,1.94,5.31,4.32,5.31l.33,0V25.4l-.33,0C28.41,25.38,26.48,27.76,26.48,30.69Z"/><polygon class="cls-3" points="31.34 25.37 35.31 29.17 35.31 25.37 31.34 25.37"/><polygon class="cls-3" points="35.14 36.01 35.14 32.5 31.16 36.01 35.14 36.01"/><rect class="cls-3" x="16.43" y="25.49" width="3.76" height="10.66"/><polygon class="cls-3" points="24.05 25.51 20.38 25.51 24.05 29.3 24.05 25.51"/><polygon class="cls-3" points="22.65 28.33 20.23 30.67 22.56 32.92 22.65 28.33"/><polygon class="cls-3" points="20.25 36.13 24.17 36.13 24.17 31.43 20.25 36.13"/><polygon class="cls-3" points="44.73 25.36 40.71 25.36 41.99 31.19 41.12 31.19 40.09 27.04 38.28 36 42.28 36 41.34 32.21 42.21 32.21 43.05 36.01 47.06 36.01 44.73 25.36"/><rect class="cls-3" x="49.28" y="25.36" width="3.83" height="10.66"/><path class="cls-3" d="M54,25.42v6.17s4.39.4,4.44-2.77C58.54,24.8,54,25.42,54,25.42Z"/><rect class="cls-3" x="60.86" y="25.36" width="4.04" height="10.66"/><path class="cls-3" d="M66.31,30.91c1.08,0,4.29-.13,4.33-2.48.07-3.57-4.69-3-4.69-3v5.42l0,5.19h5.19Z"/><path class="cls-3" d="M72.82,30.69c0,2.86,1.93,5.18,4.35,5.32V25.37C74.75,25.5,72.82,27.83,72.82,30.69Z"/><path class="cls-3" d="M78.2,25.38V36c2.34-.23,4.18-2.52,4.18-5.31S80.54,25.61,78.2,25.38Z"/><path class="cls-4" d="M26.79,41.14h-9c5.84,6,14.87,9.73,24.61,9.9v-4A25.5,25.5,0,0,1,26.79,41.14Z"/><path class="cls-4" d="M68.34,41.14h-9a25.5,25.5,0,0,1-15.63,5.93v4C53.45,50.88,62.5,47.15,68.34,41.14Z"/><path class="cls-4" d="M57.56,41.14H43.71V46A24.38,24.38,0,0,0,57.56,41.14Z"/><path class="cls-4" d="M28.56,41.14A24.37,24.37,0,0,0,42.39,46V41.14Z"/><path class="cls-4" d="M16.29,41.14H10.1c5.66,8.46,18,14.37,32.29,14.55V52.14C32,52,22.3,47.8,16.29,41.14Z"/><path class="cls-4" d="M76,41.14H69.83c-6,6.67-15.69,10.84-26.13,11v3.55C58,55.52,70.36,49.6,76,41.14Z"/><polygon class="cls-4" points="12.72 20.39 23.22 20.39 41.44 6.48 12.72 20.39"/><path class="cls-4" d="M25,20.39H61.69L43.47,6.31Zm20.22-8.2,5,0-4,2.65,1.58,4.33-4-2.72-4,2.72,1.58-4.33-4-2.65,5,0,1.48-4.36Z"/><path class="cls-4" d="M46.41,5.73,75.95,20.39h.21C70.92,12.35,59.7,6.56,46.41,5.73Z"/><polygon class="cls-4" points="63.48 20.39 73.47 20.39 45.54 6.53 63.48 20.39"/><path class="cls-4" d="M10,20.39h.24L40.57,5.68C26.9,6.32,15.32,12.18,10,20.39Z"/></g></g></svg>