<svg xmlns="http://www.w3.org/2000/svg" viewBox="0 0 19.08 19.01"><defs><style>.cls-1{fill:#7b8c7a;}</style></defs><title>nang cao 1</title><g id="Layer_2" data-name="Layer 2"><g id="Layer_1-2" data-name="Layer 1"><path class="cls-1" d="M18.92,15.85l-4.4-3.44a7.94,7.94,0,1,0-2.07,2.08l3.49,4.35a.58.58,0,0,0,.81,0l2.16-2.16A.6.6,0,0,0,18.92,15.85Zm-7.09-4a5.49,5.49,0,1,1,0-7.77A5.49,5.49,0,0,1,11.83,11.83Z"/><path class="cls-1" d="M8.68,3.49a4.65,4.65,0,0,0-4,1.63,5.23,5.23,0,0,0-1,4.49S4.45,4.61,8.68,3.49Z"/></g></g></svg>