<svg xmlns="http://www.w3.org/2000/svg" viewBox="0 0 16.47 20"><defs><style>.cls-1{fill:#68301a;}</style></defs><title>nhap</title><g id="Layer_2" data-name="Layer 2"><g id="Layer_1-2" data-name="Layer 1"><path class="cls-1" d="M11.51,7.64H8.81V2.29h-2V7.64H4.51L8,12.73ZM6.85,15.2a1.33,1.33,0,0,0,2.35,0l5.68-8.29C15.52,6,15,5.21,13.7,5.21H11.28V.93A1,1,0,0,0,10.23,0H5.81A1.06,1.06,0,0,0,4.69.93V5.21H2.34C1.05,5.21.52,6,1.17,6.92ZM2.14,6.36c.05,0,.12,0,.2,0H5.68V1.18h4.2V6.39H13.7c.08,0,.15,0,.2,0h0s0,0-.08.08L8.14,14.74a1,1,0,0,1-.12.15.8.8,0,0,1-.12-.14L2.22,6.49a1,1,0,0,1-.08-.11Zm13,8.16H15.1a1.28,1.28,0,0,0-1.35,1.1v2.09H2.64V15.62a1.24,1.24,0,0,0-1.32-1.1H1.24A1.17,1.17,0,0,0,0,15.62v3.26a1,1,0,0,0,.49.86h0s0,0,0,0a1.44,1.44,0,0,0,.75.23H15.18a1.45,1.45,0,0,0,.75-.23l0,0h0a1,1,0,0,0,.51-.87V15.62A1.22,1.22,0,0,0,15.18,14.51Z"/></g></g></svg>