<svg xmlns="http://www.w3.org/2000/svg" viewBox="0 0 20 17.38"><defs><style>.cls-1{fill:#7b8c7a;}</style></defs><title>soan thu 1</title><g id="Layer_2" data-name="Layer 2"><g id="Layer_1-2" data-name="Layer 1"><path class="cls-1" d="M0,1.32V11.57a.18.18,0,0,0,.31.14L6,6.58a.18.18,0,0,0,0-.27L.31,1.18A.18.18,0,0,0,0,1.32Z"/><path class="cls-1" d="M16.46,0H1.5a.18.18,0,0,0-.12.32L8.85,7A.18.18,0,0,0,9.1,7L16.58.32A.18.18,0,0,0,16.46,0Z"/><path class="cls-1" d="M12.95,7.5a.17.17,0,0,0,.19,0,5.91,5.91,0,0,1,4.57-.05A.18.18,0,0,0,18,7.32v-6a.18.18,0,0,0-.31-.14L11.92,6.31a.18.18,0,0,0,0,.27Z"/><path class="cls-1" d="M11.82,8.32l-1-.85a.18.18,0,0,0-.24,0L9.1,8.83a.18.18,0,0,1-.24,0L7.33,7.47a.18.18,0,0,0-.24,0L1.38,12.57a.18.18,0,0,0,.12.32H9.42a.18.18,0,0,0,.18-.18,5.83,5.83,0,0,1,2.22-4.4"/><path class="cls-1" d="M15.48,8.4A4.49,4.49,0,1,0,20,12.89,4.51,4.51,0,0,0,15.48,8.4m2.8,5.17H16.35a.18.18,0,0,0-.18.18v1.92H14.8V13.75a.18.18,0,0,0-.18-.18H12.68V12.21h1.94A.18.18,0,0,0,14.8,12V10.11h1.36V12a.18.18,0,0,0,.18.18h1.94Z"/></g></g></svg>