<svg xmlns="http://www.w3.org/2000/svg" viewBox="0 0 20 17.38"><defs><style>.cls-1{fill:#68301a;}</style></defs><title>soan thu</title><g id="Layer_2" data-name="Layer 2"><g id="Layer_1-2" data-name="Layer 1"><polygon class="cls-1" points="0 0.91 0 11.98 6.19 6.45 0 0.91"/><polygon class="cls-1" points="16.94 0 1.02 0 8.98 7.11 16.94 0"/><path class="cls-1" d="M13,7.58a5.91,5.91,0,0,1,4.92,0V.91L11.76,6.45Z"/><path class="cls-1" d="M11.82,8.32l-1.08-1L9,8.94,7.21,7.36,1,12.89H9.6a5.82,5.82,0,0,1,2.22-4.57"/><path class="cls-1" d="M15.48,8.4A4.49,4.49,0,1,0,20,12.89,4.51,4.51,0,0,0,15.48,8.4m2.8,5.17H16.16v2.1H14.8v-2.1H12.68V12.21H14.8v-2.1h1.36v2.1h2.12Z"/></g></g></svg>