<svg xmlns="http://www.w3.org/2000/svg" viewBox="0 0 16 16"><defs><style>.cls-1{fill:#5b5b5b;}</style></defs><title>tao nhom moi</title><g id="Layer_2" data-name="Layer 2"><g id="Layer_1-2" data-name="Layer 1"><path class="cls-1" d="M5.55,1.73V5.55H1.73A1.63,1.63,0,0,0,0,7.06V8.94a1.63,1.63,0,0,0,1.73,1.51H5.55v3.82A1.63,1.63,0,0,0,7.06,16H8.94a1.63,1.63,0,0,0,1.51-1.73V10.45h3.82A1.63,1.63,0,0,0,16,8.94V7.06a1.63,1.63,0,0,0-1.73-1.51H10.45V1.73A1.63,1.63,0,0,0,8.94,0H7.06A1.63,1.63,0,0,0,5.55,1.73Z"/></g></g></svg>