<svg xmlns="http://www.w3.org/2000/svg" viewBox="0 0 22 22"><defs><style>.cls-1{fill:#387236;}</style></defs><title>thiet lap cau hinh</title><g id="Layer_2" data-name="Layer 2"><g id="Layer_1-2" data-name="Layer 1"><path class="cls-1" d="M21.93,9.78a.72.72,0,0,0-.71-.54A2.43,2.43,0,0,1,19.56,5a.61.61,0,0,0,.07-.83,10.92,10.92,0,0,0-1.74-1.76.61.61,0,0,0-.84.07,2.54,2.54,0,0,1-2.75.62A2.44,2.44,0,0,1,12.82.72a.61.61,0,0,0-.54-.64,11,11,0,0,0-2.47,0A.61.61,0,0,0,9.26.7,2.45,2.45,0,0,1,7.76,3,2.55,2.55,0,0,1,5,2.42a.62.62,0,0,0-.83-.07A11,11,0,0,0,2.42,4.11a.61.61,0,0,0,.07.84A2.43,2.43,0,0,1,3.1,7.69,2.54,2.54,0,0,1,.71,9.18a.6.6,0,0,0-.63.54,11,11,0,0,0,0,2.5.73.73,0,0,0,.72.54,2.41,2.41,0,0,1,2.26,1.51A2.45,2.45,0,0,1,2.44,17a.61.61,0,0,0-.07.83,10.94,10.94,0,0,0,1.74,1.76.61.61,0,0,0,.84-.07,2.53,2.53,0,0,1,2.74-.62,2.44,2.44,0,0,1,1.49,2.39.61.61,0,0,0,.54.64,11,11,0,0,0,2.47,0,.61.61,0,0,0,.54-.63A2.44,2.44,0,0,1,14.25,19a2.53,2.53,0,0,1,2.72.62.62.62,0,0,0,.83.07,11.06,11.06,0,0,0,1.78-1.76.61.61,0,0,0-.07-.84,2.44,2.44,0,0,1-.62-2.74,2.46,2.46,0,0,1,2.25-1.49h.14a.61.61,0,0,0,.64-.54,11,11,0,0,0,0-2.5M11,14.69A3.67,3.67,0,1,1,14.69,11,3.67,3.67,0,0,1,11,14.69"/></g></g></svg>