<svg xmlns="http://www.w3.org/2000/svg" viewBox="0 0 20 20"><defs><style>.cls-1{fill:#efefef;}</style></defs><title>thoat</title><g id="Layer_2" data-name="Layer 2"><g id="Layer_1-2" data-name="Layer 1"><path class="cls-1" d="M8.44,9.3V1.55a1.56,1.56,0,0,1,3.12,0V9.3a1.56,1.56,0,0,1-3.12,0m7.75-7a1.18,1.18,0,0,0-1.64.19,1.16,1.16,0,0,0,.19,1.63,7.55,7.55,0,0,1,2.92,6,7.66,7.66,0,0,1-15.32,0,7.54,7.54,0,0,1,2.92-6,1.16,1.16,0,0,0,.19-1.63,1.18,1.18,0,0,0-1.65-.19A9.86,9.86,0,0,0,0,10.07a10,10,0,0,0,20,0,9.86,9.86,0,0,0-3.81-7.8"/></g></g></svg>