<svg xmlns="http://www.w3.org/2000/svg" viewBox="0 0 20 20"><defs><style>.cls-1{fill:#fff;}</style></defs><title>tieu de</title><g id="Layer_2" data-name="Layer 2"><g id="Layer_1-2" data-name="Layer 1"><path class="cls-1" d="M19.94,8.89a.65.65,0,0,0-.64-.49,2.21,2.21,0,0,1-1.51-3.84.56.56,0,0,0,.06-.75,9.93,9.93,0,0,0-1.58-1.6.56.56,0,0,0-.76.06,2.31,2.31,0,0,1-2.5.56A2.22,2.22,0,0,1,11.66.65a.55.55,0,0,0-.49-.58,9.94,9.94,0,0,0-2.25,0,.56.56,0,0,0-.5.57A2.23,2.23,0,0,1,7.05,2.77,2.32,2.32,0,0,1,4.57,2.2a.56.56,0,0,0-.75-.06A10,10,0,0,0,2.2,3.74a.56.56,0,0,0,.06.76A2.21,2.21,0,0,1,2.82,7,2.31,2.31,0,0,1,.64,8.35a.54.54,0,0,0-.58.49,10,10,0,0,0,0,2.27.66.66,0,0,0,.66.49A2.19,2.19,0,0,1,2.78,13a2.22,2.22,0,0,1-.56,2.47.56.56,0,0,0-.06.75,9.92,9.92,0,0,0,1.58,1.6.56.56,0,0,0,.76-.06A2.3,2.3,0,0,1,7,17.18a2.22,2.22,0,0,1,1.35,2.17.56.56,0,0,0,.49.59A10.13,10.13,0,0,0,10,20a10,10,0,0,0,1.1-.06.55.55,0,0,0,.49-.57A2.22,2.22,0,0,1,13,17.23a2.3,2.3,0,0,1,2.48.56.56.56,0,0,0,.75.06,10,10,0,0,0,1.62-1.6.56.56,0,0,0-.06-.76,2.21,2.21,0,0,1,1.49-3.85h.12a.56.56,0,0,0,.59-.49,10.07,10.07,0,0,0,0-2.27M10,13.36A3.34,3.34,0,1,1,13.35,10,3.34,3.34,0,0,1,10,13.36"/></g></g></svg>