<svg xmlns="http://www.w3.org/2000/svg" viewBox="0 0 20 14.38"><defs><style>.cls-1{fill:#68301a;}</style></defs><title>tra loi thu</title><g id="Layer_2" data-name="Layer 2"><g id="Layer_1-2" data-name="Layer 1"><path class="cls-1" d="M19.65.34A1.15,1.15,0,0,0,18.82,0H3.13a1.16,1.16,0,0,0-.84.34,1.12,1.12,0,0,0-.34.82V5.52H3V2.75l7.55,7.46a.52.52,0,0,0,.38.15h0a.52.52,0,0,0,.38-.15l7.55-7.46V13.24a.12.12,0,0,1-.11.09H13.08v1h5.74a1.15,1.15,0,0,0,.83-.34,1.07,1.07,0,0,0,.35-.8V1.16a1.12,1.12,0,0,0-.35-.82"/><path class="cls-1" d="M11.89,12.95a7.05,7.05,0,0,0-.65-.86,9.37,9.37,0,0,0-1.69-1.57A10,10,0,0,0,6.71,9a11.86,11.86,0,0,0-1.9-.5V6.68a.48.48,0,0,0-.34-.48.51.51,0,0,0-.58.11L.17,9.91a.49.49,0,0,0,0,.74l3.72,3.58a.51.51,0,0,0,.37.15.59.59,0,0,0,.2,0,.53.53,0,0,0,.34-.48V12.08h.36a11.72,11.72,0,0,1,2.47.27,15.27,15.27,0,0,1,3.47,1.3h0a.58.58,0,0,0,.66-.06.49.49,0,0,0,.1-.64ZM5.17,11a9.66,9.66,0,0,0-1,0,.53.53,0,0,0-.48.52v1L1.3,10.28,3.73,7.94V9a.52.52,0,0,0,.46.52,10.17,10.17,0,0,1,5.19,2.24A13.3,13.3,0,0,0,5.17,11"/></g></g></svg>