<svg xmlns="http://www.w3.org/2000/svg" xmlns:xlink="http://www.w3.org/1999/xlink" viewBox="0 0 20 14.66"><defs><style>.cls-1{fill:#68301a;}.cls-2{clip-path:url(#clip-path);}</style><clipPath id="clip-path"><polygon class="cls-1" points="3.54 4.27 13.25 4.3 13.7 4.9 13.58 12.7 17.25 12.81 17.28 0.29 3.46 0 3.54 4.27"/></clipPath></defs><title>tra loi tat ca</title><g id="Layer_2" data-name="Layer 2"><g id="Layer_1-2" data-name="Layer 1"><path class="cls-1" d="M8.18,13.63A5.38,5.38,0,0,0,7.74,13a6.59,6.59,0,0,0-1.16-1.13,6.76,6.76,0,0,0-2-1.08,7.8,7.8,0,0,0-1.31-.36V9.11a.35.35,0,0,0-.24-.35.34.34,0,0,0-.4.08L.12,11.44a.36.36,0,0,0,0,.53l2.56,2.58a.34.34,0,0,0,.26.11.39.39,0,0,0,.14,0,.38.38,0,0,0,.24-.35V13h.25a7.77,7.77,0,0,1,1.7.2,10.22,10.22,0,0,1,2.39.94h0a.38.38,0,0,0,.46,0,.36.36,0,0,0,.07-.46ZM3.56,12.25a6.48,6.48,0,0,0-.67,0,.38.38,0,0,0-.33.38v.73L.9,11.71,2.57,10v.74a.37.37,0,0,0,.32.37,6.84,6.84,0,0,1,3.57,1.62,8.79,8.79,0,0,0-2.89-.5"/><path class="cls-1" d="M13.53,4.54A.77.77,0,0,0,13,4.29H2.16a.78.78,0,0,0-.58.24.83.83,0,0,0-.24.59V8.27h.75v-2l5.19,5.37a.35.35,0,0,0,.26.11h0a.35.35,0,0,0,.26-.11L13,6.28v7.56a.09.09,0,0,1-.07.07H9v.76h4a.77.77,0,0,0,.57-.25.79.79,0,0,0,.24-.58V5.13a.83.83,0,0,0-.24-.59m-6,6.32L2.09,5.2V5.13s0-.08.07-.08H13s.07,0,.07.08V5.2"/><polygon class="cls-1" points="3.54 4.27 13.25 4.3 13.7 4.9 13.58 12.7 17.25 12.81 17.28 0.29 3.46 0 3.54 4.27"/><g class="cls-2"><path class="cls-1" d="M16.28,2.09a.77.77,0,0,0-.57-.24H4.91a.78.78,0,0,0-.58.24.83.83,0,0,0-.23.59V4.9L4.84,5V3.82L10,9.2a.35.35,0,0,0,.26.11h0a.35.35,0,0,0,.26-.11l5.2-5.38v7.56a.09.09,0,0,1-.07.07H13.47v.88l2.23-.13a.77.77,0,0,0,.57-.24.79.79,0,0,0,.24-.58V2.68a.83.83,0,0,0-.24-.59m-.5.66L10.31,8.4,4.84,2.75V2.68s0-.08.07-.08h10.8s.07,0,.07.08Z"/></g><rect class="cls-1" x="19.3" y="2.48" width="0.7" height="11.17"/></g></g></svg>