<svg xmlns="http://www.w3.org/2000/svg" viewBox="0 0 20 14.53"><defs><style>.cls-1{fill:#7b8c7a;}</style></defs><title>tra loi tat ca 1</title><g id="Layer_2" data-name="Layer 2"><g id="Layer_1-2" data-name="Layer 1"><path class="cls-1" d="M8.18,13.5a5.38,5.38,0,0,0-.44-.62,6.59,6.59,0,0,0-1.16-1.13,6.76,6.76,0,0,0-2-1.08,7.8,7.8,0,0,0-1.31-.36V9a.35.35,0,0,0-.24-.35.34.34,0,0,0-.4.08L.12,11.31a.36.36,0,0,0,0,.53l2.56,2.58a.34.34,0,0,0,.26.11.39.39,0,0,0,.14,0,.38.38,0,0,0,.24-.35V12.87h.25a7.77,7.77,0,0,1,1.7.2A10.22,10.22,0,0,1,7.65,14h0a.38.38,0,0,0,.46,0,.36.36,0,0,0,.07-.46ZM3.56,12.12a6.48,6.48,0,0,0-.67,0,.38.38,0,0,0-.33.38v.73L.9,11.58,2.57,9.89v.74a.37.37,0,0,0,.32.37,6.84,6.84,0,0,1,3.57,1.62,8.79,8.79,0,0,0-2.89-.5"/><path class="cls-1" d="M13.53,4.41A.77.77,0,0,0,13,4.16H2.16a.78.78,0,0,0-.58.24A.83.83,0,0,0,1.34,5V8.14h.75v-2l5.19,5.37a.35.35,0,0,0,.26.11h0a.35.35,0,0,0,.26-.11L13,6.15v7.56a.09.09,0,0,1-.07.07H9v.76h4a.77.77,0,0,0,.57-.25.79.79,0,0,0,.24-.58V5a.83.83,0,0,0-.24-.59m-.5.66L7.56,10.73,2.09,5.07V5s0-.08.07-.08H13S13,4.95,13,5Z"/><path class="cls-1" d="M17.27,1.19l0,10.6a.86.86,0,0,1-.89.86l-2.78-.08.12-7.8-.45-.6-9.71,0L3.57.8A.81.81,0,0,1,4.39,0L16.24.15A1,1,0,0,1,17.27,1.19Z"/><rect class="cls-1" x="19.3" y="2.36" width="0.7" height="11.17"/></g></g></svg>