<svg xmlns="http://www.w3.org/2000/svg" viewBox="0 0 16.47 20"><defs><style>.cls-1{fill:#68301a;}</style></defs><title>trich xuat</title><g id="Layer_2" data-name="Layer 2"><g id="Layer_1-2" data-name="Layer 1"><path class="cls-1" d="M15.18,14.51H15.1a1.28,1.28,0,0,0-1.35,1.1v2.09H2.64V15.62a1.24,1.24,0,0,0-1.32-1.1H1.24A1.17,1.17,0,0,0,0,15.62v3.26a1,1,0,0,0,.49.86h0s0,0,0,0a1.44,1.44,0,0,0,.75.23H15.18a1.45,1.45,0,0,0,.75-.23l0,0h0a1,1,0,0,0,.51-.87V15.62A1.22,1.22,0,0,0,15.18,14.51Z"/><path class="cls-1" d="M4.75,8.27h2.7v5.35h2V8.27h2.32l-3.5-5.1ZM9.41.71a1.33,1.33,0,0,0-2.35,0L1.38,9c-.65.94-.12,1.71,1.17,1.71H5V15A1,1,0,0,0,6,15.91h4.41A1.06,1.06,0,0,0,11.56,15V10.7h2.35c1.29,0,1.82-.76,1.17-1.71Zm4.7,8.85c-.05,0-.12,0-.2,0H10.57v5.21H6.37V9.52H2.56c-.08,0-.15,0-.2,0h0s0,0,.08-.08L8.11,1.17A1,1,0,0,1,8.24,1a.8.8,0,0,1,.12.14L14,9.42a1,1,0,0,1,.08.11Z"/></g></g></svg>