<svg xmlns="http://www.w3.org/2000/svg" viewBox="0 0 20 13.74"><defs><style>.cls-1{fill:#7b8c7a;}</style></defs><title>tro lai 1</title><g id="Layer_2" data-name="Layer 2"><g id="Layer_1-2" data-name="Layer 1"><path class="cls-1" d="M19.85,11.34A11.78,11.78,0,0,0,18.78,9.9,15.64,15.64,0,0,0,16,7.28,16.67,16.67,0,0,0,11.2,4.77,19.8,19.8,0,0,0,8,3.94V.88a.8.8,0,0,0-.57-.8.85.85,0,0,0-1,.19l-6.22,6a.81.81,0,0,0,0,1.23l6.22,6a.84.84,0,0,0,.62.25,1,1,0,0,0,.34-.07.89.89,0,0,0,.57-.8v-3h.6a19.57,19.57,0,0,1,4.13.46,25.51,25.51,0,0,1,5.8,2.18l0,0a1,1,0,0,0,1.11-.09.82.82,0,0,0,.17-1.07ZM8.64,8.15A16.13,16.13,0,0,0,7,8.21a.89.89,0,0,0-.8.87v1.69l-4-3.88L6.22,3V4.69A.86.86,0,0,0,7,5.56,17,17,0,0,1,15.66,9.3a22.22,22.22,0,0,0-7-1.15"/></g></g></svg>