<svg xmlns="http://www.w3.org/2000/svg" viewBox="0 0 18 17.98"><defs><style>.cls-1{fill:#68301a;}</style></defs><title>xoa</title><g id="Layer_2" data-name="Layer 2"><g id="Layer_1-2" data-name="Layer 1"><path class="cls-1" d="M14.5,18a2.44,2.44,0,0,1-1.73-.72L9.69,14.18a1,1,0,0,0-1.38,0L5.23,17.26a2.51,2.51,0,0,1-3.47,0l-1-1a2.46,2.46,0,0,1,0-3.47L3.79,9.67a1,1,0,0,0,0-1.38L.72,5.21a2.46,2.46,0,0,1,0-3.47l1.05-1a2.51,2.51,0,0,1,3.47,0L8.31,3.77a1,1,0,0,0,1.38,0L12.76.69a2.51,2.51,0,0,1,3.47,0l1,1a2.45,2.45,0,0,1,0,3.47L14.21,8.29a1,1,0,0,0,0,1.38l3.08,3.08a2.46,2.46,0,0,1,0,3.47l-1.05,1A2.43,2.43,0,0,1,14.5,18ZM9,12.42a2.44,2.44,0,0,1,1.73.72l3.08,3.08a1,1,0,0,0,1.38,0l1.05-1a1,1,0,0,0,0-1.38l-3.08-3.08a2.46,2.46,0,0,1,0-3.47l3.08-3.08a1,1,0,0,0,0-1.38l-1-1a1,1,0,0,0-1.38,0L10.73,4.81a2.51,2.51,0,0,1-3.47,0L4.19,1.74a1,1,0,0,0-1.38,0l-1.05,1a1,1,0,0,0,0,1.38L4.84,7.24a2.46,2.46,0,0,1,0,3.47L1.76,13.79a1,1,0,0,0,0,1.38l1,1a1,1,0,0,0,1.38,0l3.08-3.08A2.43,2.43,0,0,1,9,12.42Z"/></g></g></svg>